<?xml version="1.0" standalone="no"?>
<!DOCTYPE svg PUBLIC "-//W3C//DTD SVG 1.1//EN" "http://www.w3.org/Graphics/SVG/1.1/DTD/svg11.dtd" >
<svg xmlns="http://www.w3.org/2000/svg" xmlns:xlink="http://www.w3.org/1999/xlink" version="1.1">
<metadata>
Created by FontForge 20170731 at Sat Mar 13 09:57:37 2021
 By Aleksey,,,
Jimmy Collins Demo Version (c) Allouse.Studio . 2021 . All Rights Reserved
</metadata>
<defs>
<font id="JimmyCollinsDemoVersion" horiz-adv-x="698" >
  <font-face 
    font-family="Jimmy Collins Demo Version"
    font-weight="400"
    font-stretch="normal"
    units-per-em="2048"
    panose-1="2 0 6 0 0 0 0 0 0 0"
    ascent="1630"
    descent="-418"
    x-height="1078"
    cap-height="1382"
    bbox="-617 -389 1205 1515"
    underline-thickness="150"
    underline-position="-442"
    unicode-range="U+0020-2265"
  />
<missing-glyph horiz-adv-x="0" 
 />
    <glyph glyph-name=".notdef" horiz-adv-x="0" 
 />
    <glyph glyph-name=".null" horiz-adv-x="0" 
 />
    <glyph glyph-name="nonmarkingreturn" horiz-adv-x="682" 
 />
    <glyph glyph-name="space" unicode=" " horiz-adv-x="600" 
 />
    <glyph glyph-name="space" unicode="&#xa0;" horiz-adv-x="600" 
 />
    <glyph glyph-name="exclam" unicode="!" horiz-adv-x="284" 
d="M109 69q-9 4 -19.5 12.5t-16.5 17.5q-7 8 -10.5 15t-4.5 18t-1 32q0 28 2.5 41t11.5 27q18 32 39 39t33 7q18 0 37 -9q15 -7 24 -19.5t19 -42.5q11 -28 11 -51t-10 -42t-21 -29t-29 -18q-16 -7 -29 -7h-3q-14 0 -33 9zM110 444q-17 8 -30.5 24t-16.5 33q-5 37 -9 198.5
t-4 343.5v160q1 54 3.5 79.5t8.5 36.5t18 21l1 1q10 10 18.5 12.5t31.5 2.5q21 0 30 -2.5t17 -10.5q6 -6 12 -13t9 -13q9 -7 15 -766q0 -27 -0.5 -41t-2.5 -21.5t-7 -13.5q-30 -37 -65 -37q-14 0 -29 6z" />
    <glyph glyph-name="quotedbl" unicode="&#x22;" horiz-adv-x="489" 
d="M111 734q-29 17 -39 57q-6 28 -12 121t-8 167t-2 110t1 58q3 72 54 88q15 5 28 5q28 0 50 -22q11 -11 16.5 -24t7 -40.5t1.5 -81.5q0 -80 4.5 -173t11.5 -157q3 -22 3 -30v-12q0 -7 -1 -12q-2 -8 -7 -18q-11 -24 -28 -35q-17 -10 -40 -10t-40 9zM323 799q-21 13 -30 38.5
t-12 80.5q-4 79 -4 155q0 43 1 86q4 116 16 147q9 16 25 28.5t33 16.5q5 1 9 1q17 0 34 -9q23 -12 35 -30q4 -7 6.5 -14t3 -18.5t0.5 -23.5q0 -11 -1 -27q-1 -32 -3 -89q-1 -49 -1 -105t2 -91q2 -34 2 -56v-14q0 -25 -5.5 -39t-18.5 -26q-10 -12 -19 -16t-26 -5
q-8 -1 -15 -1q-6 0 -11 1q-10 2 -21 10z" />
    <glyph glyph-name="numbersign" unicode="#" horiz-adv-x="982" 
d="M821 712q111 -8 111 -85v-1q0 -36 -35 -61q-6 -5 -13.5 -7t-23.5 -2h-47l-70 2l-9 -41q-4 -18 -9.5 -42t-9.5 -43q-4 -18 -7 -32.5t-3 -16.5q0 -3 14 -3q9 0 22 1q13 2 24 2q44 0 63 -26q20 -26 20 -52q0 -24 -17 -48q-13 -17 -37 -24.5t-71 -9.5l-60 -3l-5 -19
q-2 -8 -7 -27t-9 -39q-10 -45 -21.5 -64t-33.5 -28q-17 -8 -33 -8q-23 0 -44 18q-24 19 -29 46q-1 7 -1 15q0 25 9 62l10 40h-132l-20 -81q-9 -35 -18 -62.5t-14 -35.5q-28 -39 -65 -39q-17 0 -35 8q-43 17 -43 66q0 24 10 55q6 19 10.5 38t6.5 28l4 22l-47 -1
q-27 0 -40.5 2t-23.5 8q-31 20 -39 50q-3 10 -3 20q0 19 12 38q13 22 35 29.5t77 10.5l68 3l18 84l19 83l-16 -3q-8 -1 -27.5 -3t-41.5 -3q-23 -1 -36 -1q-12 0 -19 2t-15 7q-18 12 -28 35q-8 17 -8 33q0 5 1 10q5 20 23.5 38.5t41.5 25.5q11 2 37 5.5t56 6.5t50 5.5t22 3.5
q1 2 10.5 35.5t23.5 82.5q19 66 30 100.5t21 48.5t24 21q19 9 37 9q19 0 45.5 -15.5t28.5 -60.5q0 -12 -10 -54t-22 -87t-20 -67v-1q0 -2 12 -3h50q27 1 45.5 2t20.5 2q1 1 7.5 27.5t16.5 64.5q16 65 25.5 98.5t16 48t14.5 23.5q26 27 55 27q4 0 24 -2.5t41 -31.5
q15 -19 15 -45q0 -13 -4 -27q-4 -15 -12 -43.5t-16 -60t-13.5 -53.5t-6.5 -24q1 -1 13 -3t30 -4zM541 381q1 2 7 26t13 56t12.5 58t5.5 29t-4.5 4.5t-19 1l-43.5 -1.5q-28 -2 -47.5 -3.5t-21.5 -1.5q-1 -3 -6.5 -26t-12.5 -54t-12 -56t-6 -31q0 -3 2 -4.5t8 -2.5h9h15t33 2
q28 1 47.5 2.5t20.5 1.5z" />
    <glyph glyph-name="dollar" unicode="$" horiz-adv-x="758" 
d="M696 428q12 -34 12 -72v-25.5t-15 -55.5q-45 -92 -173 -127q-17 -4 -25 -7t-10 -7q-1 -2 -1 -6v-4q2 -41 2.5 -63.5t-1.5 -34t-8 -17.5q-29 -38 -64 -38q-17 0 -35 9q-22 11 -33.5 33.5t-16.5 64.5q-2 20 -3.5 34.5t-1.5 17.5t-11 8t-27 10q-35 11 -64.5 25.5t-68.5 40.5
q-34 23 -61.5 49.5t-34.5 44.5q-6 16 -6 31q0 13 5.5 34.5t27.5 37.5q21 14 46 14q6 0 25 -2.5t36 -25.5q32 -46 87 -76q15 -8 26 -12q8 -3 11 -3h1q1 3 1 37q0 33 -1 82l-4 116l-41 22q-86 45 -124 98.5t-42 134.5q-1 9 -1 18q0 78 40 157q20 38 57 76.5t74 58.5l32 17
l2 85q1 37 2 56.5t3.5 29.5t7.5 18q26 41 67 41h22.5t46.5 -44q4 -9 6 -18t2.5 -24.5t0.5 -42.5l-1 -64l32 -9q45 -13 91.5 -49t74.5 -81q18 -29 28 -63q8 -26 8 -44q0 -5 -1 -10q-9 -40 -41 -56q-16 -8 -32 -8q-18 0 -38 9q-14 7 -27 25t-19 39q-6 17 -20 35.5t-34 32.5
l-24 18l4 -178q1 -49 2 -81.5t2 -52t2 -30t3 -15.5t4 -6q5 -4 23 -16t42 -26q120 -70 151 -166zM311 721q0 2 -0.5 32.5t-1.5 74.5l-3 106l-14 -19q-20 -32 -28 -72q-3 -18 -3 -34q0 -21 5 -38q2 -6 8.5 -15t14 -17.5t13.5 -13.5q6 -4 8 -4h1zM548 337q4 8 4 17q0 16 -13 40
t-46 48l-25 17l4 -33q1 -14 2 -37t1 -42q0 -47 6 -47h1q3 0 12.5 4t20.5 9q12 5 21 12t12 12z" />
    <glyph glyph-name="percent" unicode="%" horiz-adv-x="1157" 
d="M306 28q-15 7 -28.5 21t-18.5 29q-4 9 -4 20q0 7 2 15q4 19 20 59q8 19 22 56.5t28 76.5q15 41 42 112t54 140q43 110 99 259.5t103 278t61 172.5q12 38 19.5 54.5t18.5 25.5q26 22 52 22q16 0 32 -8q43 -20 43 -74q0 -9 -5.5 -31.5t-12.5 -47.5q-15 -45 -65 -180.5
t-109 -292t-100 -262.5q-27 -68 -51 -130.5t-33 -89.5q-35 -101 -54 -145t-33 -59q-25 -26 -55 -26q-13 0 -27 5zM1106 531q1 -12 1 -23q0 -106 -75 -179q-61 -62 -123 -64h-8q-28 0 -46 6q-87 34 -112 138q-6 33 -6 66q0 93 47 192q14 27 23.5 39t24.5 21q12 8 20.5 11
t21 4t37.5 1q35 0 50 -2.5t32 -11.5q101 -50 113 -198zM926 447q25 25 25 63q0 10 -2 21q-3 23 -11 40q-8 16 -14 16h-1q-7 -4 -14.5 -29t-11.5 -56q-3 -21 -3 -37q0 -8 1 -15q2 -10 4.5 -17t3.5 -7q2 0 8.5 6t14.5 15zM336 1048q73 -77 73 -184q0 -26 -5 -55
q-23 -111 -96 -177q-56 -51 -114 -51q-17 0 -35 5q-54 17 -87 85q-9 18 -13.5 30t-6 26t-2.5 40v14q0 122 68 225q25 39 48.5 53t64.5 17q20 2 35 2q18 0 34.5 -4.5t35.5 -25.5zM238 799q6 15 9 38q3 18 3 33v16t-5 18q-1 1 -2 1q-5 0 -13.5 -19.5t-15.5 -49t-7 -53.5v-11
q0 -10 1 -12q0 -1 1 -1q3 0 8 5q4 4 10 14t11 21z" />
    <glyph glyph-name="ampersand" unicode="&#x26;" horiz-adv-x="864" 
d="M798 157q16 -27 16 -51q0 -20 -11 -39q-21 -35 -64 -35q-8 0 -17 1q-1 0 -2 1q-6 1 -10.5 3t-13 8t-24.5 19.5t-45 38.5q-6 5 -13 11q-61 52 -107 88q-45 35 -50 35q-1 -1 -8 -10.5t-17 -23.5q-83 -109 -194 -148q-31 -10 -58 -10q-85 0 -122 102q-8 29 -8 77v9
q0 43 8 84q9 40 31 105.5t45 118.5l19 45l-15 42q-35 93 -35 185q0 198 161 390q80 95 164 124q32 11 61 11q46 0 83 -28q40 -32 43 -95q1 -7 1 -15q0 -45 -27.5 -114t-114.5 -225q-33 -60 -64.5 -117.5t-46.5 -87.5l-35 -66l26 -34q11 -14 25.5 -30.5t25.5 -27.5l26 -25
l22 33q19 30 33 43.5t32 20.5q15 5 28 5q27 0 48 -20q24 -22 24 -55q0 -10 -2 -21q-2 -9 -12 -27t-22 -36t-20.5 -31.5t-8.5 -15.5t12 -12t29 -23q37 -29 81.5 -66.5t79.5 -69t43 -41.5zM344 1050q-36 -54 -60 -118.5t-24 -106.5q0 -10 1 -16q0 -5 1 -5q2 2 22 38l50 90
q112 205 112 226v1q-5 0 -23.5 -18.5t-41.5 -44.5t-37 -46zM322 319l16 21l-42 42l-41 43l-22 -66q-21 -67 -24 -108l-3 -41l27 17q12 7 26 19.5t25 24.5q10 11 20.5 24.5t17.5 23.5z" />
    <glyph glyph-name="quotesingle" unicode="'" horiz-adv-x="259" 
d="M99 829q-22 12 -33 35.5t-13.5 68t-2.5 96.5q0 35 1 78q1 58 1.5 92.5t2 52t3.5 26.5t6 16q20 38 62 43h7q40 0 65 -32q3 -4 5 -9.5t3 -17t2 -35t1 -63.5v-102q0 -71 -0.5 -113.5t-1.5 -65.5t-2.5 -32.5t-4.5 -13.5q-17 -24 -36.5 -28.5t-28.5 -4.5q-19 0 -36 9z" />
    <glyph glyph-name="parenleft" unicode="(" horiz-adv-x="533" 
d="M368 31q-40 18 -89.5 63.5t-88.5 100.5q-73 107 -106.5 244t-33.5 246q0 34 3 68q32 268 199 496q53 71 90 79q10 2 19 2q25 0 46 -15q29 -21 30 -57v-4q0 -17 -8 -33q-10 -17 -36 -48q-72 -88 -122 -206t-60 -225q-2 -27 -2 -54q0 -183 78 -349q29 -55 73.5 -104.5
t64.5 -49.5q10 0 26 -14t24 -28q3 -7 5.5 -18.5t2.5 -22.5q0 -45 -27.5 -62t-49.5 -17q-18 0 -38 8z" />
    <glyph glyph-name="parenright" unicode=")" horiz-adv-x="534" 
d="M93 31q-29 16 -36 39t-7 36q0 19 8 37q9 14 25 28t25 14q21 0 65.5 49.5t72.5 104.5q79 166 79 350q0 26 -2 53q-10 107 -60 225t-123 206q-11 13 -21 26.5t-14 20.5q-9 19 -9 36q0 24 17 45q23 29 60 29q9 0 19 -2q36 -8 89 -79q58 -74 106 -176q97 -199 97 -384
q0 -31 -3 -62q-30 -347 -222 -529q-80 -75 -133 -75q-18 0 -33 8z" />
    <glyph glyph-name="asterisk" unicode="*" horiz-adv-x="696" 
d="M208 722q-19 7 -33.5 23t-18.5 34q-1 5 -1 10q0 13 5 26q6 20 26 47q10 14 20 31.5t15 29.5l10 27l-30 20q-13 9 -34 21t-39 22q-78 39 -78 86q0 15 8 31q16 37 55 45q7 2 15 2q12 0 26 -4q23 -7 61 -28l47 -26l3 16v29t-1 46v39q0 14 2 23.5t7 19.5q19 46 71 46h2
q17 0 26 -3t20 -14q21 -17 27.5 -38t6.5 -73q0 -25 1 -43t2 -18q2 0 14 9t29 22q38 29 59 39.5t40 10.5q29 -2 52 -24.5t23 -49.5q0 -26 -17.5 -47.5t-75.5 -64.5q-32 -25 -53.5 -43t-21.5 -20q0 -9 12 -30.5t28 -45t31 -39.5q34 -35 37 -54q1 -7 1 -14q0 -39 -29 -62
q-21 -16 -47 -16q-17 0 -36 7q-20 10 -49 39.5t-46 56.5l-16 28l-19 -33q-56 -100 -114 -100q-11 0 -23 4z" />
    <glyph glyph-name="plus" unicode="+" horiz-adv-x="643" 
d="M286 320q-23 10 -34 34t-14 73q-2 25 -3 44.5t-1 23.5t-4 6t-17 3t-39 1q-34 0 -51.5 2t-29.5 8q-43 23 -43 46v24q0 44 42 68q10 5 27.5 7t54.5 2h64v59q0 38 2.5 53.5t9.5 28.5q18 45 70 45q49 0 67 -40q5 -10 7 -27t2 -52v-61l69 2q20 1 36 1q32 0 47 -5q23 -8 35 -37
q10 -18 10 -35q0 -25 -24 -48q-15 -17 -39 -24t-78 -10l-57 -3l1 -74q0 -32 -0.5 -49t-2.5 -25t-6 -13q-29 -36 -65 -36q-17 0 -36 8z" />
    <glyph glyph-name="comma" unicode="," horiz-adv-x="308" 
d="M90 -156q-19 11 -29.5 31t-10.5 36q0 4 1 8q1 8 7.5 20.5t13.5 24.5q24 39 26 64t2 32q0 36 -15 63q-10 18 -10 43t11 43q15 23 35 28.5t30 5.5q17 0 33 -8q58 -30 71 -135q3 -28 2.5 -47.5t-5.5 -48.5q-17 -97 -54.5 -133.5t-69.5 -36.5q-18 0 -38 10z" />
    <glyph glyph-name="hyphen" unicode="-" horiz-adv-x="597" 
d="M92 519q-7 4 -16 12t-14 16q-12 17 -12 37q0 5 1 9q2 26 20 45q7 7 17.5 13.5t18.5 9.5q52 14 257 20q56 1 84 1t39.5 -2t18.5 -6q41 -26 41 -64q0 -9 -2 -19q-11 -51 -72 -62q-11 -1 -54.5 -3.5t-100.5 -5.5q-57 -2 -105.5 -4.5t-65.5 -3.5q-10 -1 -19 -1q-8 0 -14 1
q-12 1 -22 7z" />
    <glyph glyph-name="hyphen" unicode="&#xad;" horiz-adv-x="597" 
d="M92 519q-7 4 -16 12t-14 16q-12 17 -12 37q0 5 1 9q2 26 20 45q7 7 17.5 13.5t18.5 9.5q52 14 257 20q56 1 84 1t39.5 -2t18.5 -6q41 -26 41 -64q0 -9 -2 -19q-11 -51 -72 -62q-11 -1 -54.5 -3.5t-100.5 -5.5q-57 -2 -105.5 -4.5t-65.5 -3.5q-10 -1 -19 -1q-8 0 -14 1
q-12 1 -22 7z" />
    <glyph glyph-name="period" unicode="." horiz-adv-x="284" 
d="M103 30q-19 9 -34 28t-18 40q-1 6 -1 13q0 42 30 73q29 31 68 31q6 0 13 -1q21 -5 42 -26t28 -46q3 -14 3 -27q0 -42 -32 -69q-27 -24 -60 -24q-18 0 -39 8z" />
    <glyph glyph-name="slash" unicode="/" horiz-adv-x="674" 
d="M97 14q-30 14 -38.5 35.5t-8.5 36.5t5 31q4 10 11 28.5t13 36.5q16 46 57 156t84 222q18 48 43 118.5t46 130.5q20 60 42 121.5t35 96.5q13 34 29.5 79.5t28.5 82.5q17 49 28.5 75.5t22.5 38t26 17.5q17 6 32 6q22 0 40 -13q31 -22 31 -64q0 -34 -89 -272
q-14 -38 -37.5 -104.5t-45.5 -131.5q-23 -65 -49 -138.5t-45 -121.5q-51 -134 -91 -243t-49 -140q-18 -64 -57 -81q-19 -9 -27 -9h-10q-13 0 -27 6z" />
    <glyph glyph-name="zero" unicode="0" 
d="M656 827q51 -118 72 -196q21 -75 21 -141v-18q0 -188 -158 -306q-77 -61 -192 -93q-87 -24 -134 -30q-15 -2 -29 -2q-27 0 -47 7q-82 26 -122 102q-39 77 -39 199q0 88 20 199q22 117 70 287.5t99 313.5q18 49 32 90t19 54q4 13 9 25t10 18q15 20 47 27q15 4 28 4
q17 0 33 -6q35 -12 59 -72q8 -18 21.5 -48.5t26.5 -59.5q14 -30 35.5 -78.5t39.5 -92.5q19 -44 41 -96t38 -87zM590 450q3 15 3 32q0 100 -82 284q-16 37 -38.5 89t-40.5 94q-17 42 -32.5 77t-21.5 47l-12 24l-6 -16q-19 -47 -48.5 -144.5t-57.5 -200.5t-41 -166
q-17 -79 -22 -130q-4 -34 -4 -70q0 -18 1 -37q2 -57 8 -83.5t20 -39.5q8 -9 15 -10q3 -1 8 -1q7 0 17 2q12 2 38 8t54 13q53 14 83.5 28t63.5 40q45 33 67 70t28 90z" />
    <glyph glyph-name="one" unicode="1" horiz-adv-x="699" 
d="M117 -22q-34 20 -43 61q-1 4 -1 8q0 16 9 33q10 22 28 33q17 10 66.5 22.5t93.5 18.5l28 4l-3 42q-5 69 -9.5 224.5t-7.5 336.5l-3 240l-24 -44q-39 -75 -75 -84q-12 -3 -23 -3q-25 0 -46 15q-30 23 -30 62q0 7 9.5 29t24.5 51q55 103 86.5 168t49.5 115q16 41 25.5 62
t17.5 31t19 16q20 11 40 11q10 0 21 -3q31 -10 48 -42l13 -26l3 -393q6 -586 19 -757l3 -38l53 4q14 1 26 1q24 0 40 -4q23 -5 41 -22q20 -21 20 -48q0 -9 -3 -20q-10 -39 -48 -56q-7 -3 -38.5 -6t-71.5 -5q-177 -11 -259 -33q-43 -12 -54 -12h-13q-18 0 -32 8z" />
    <glyph glyph-name="two" unicode="2" 
d="M-66 -6q-28 15 -36 35.5t-8 33.5q0 16 7 33q5 9 34 51.5t70 98.5q104 144 181 265.5t175 297.5q182 321 182 423v2q1 13 1 24q0 20 -4 28q-7 13 -29 13q-9 0 -21.5 -3.5t-22.5 -7.5q-27 -14 -71.5 -57.5t-80.5 -91.5q-72 -95 -81 -163q-7 -63 -53 -78q-15 -5 -29 -5
q-28 0 -50 22q-25 24 -25 67q0 28 11 65q27 89 107 194.5t165 164.5q83 53 161.5 52.5t129.5 -56.5q10 -11 20 -26.5t15 -28.5q6 -13 8.5 -24.5t3 -29t0.5 -49.5q0 -46 -3 -69t-12 -52q-21 -73 -66.5 -167t-139.5 -260q-154 -275 -295 -473q-4 -7 -4 -8v-1h2q2 0 8 1
q66 17 236 28q57 3 97 5.5t45 3.5q3 0 4 2t1 5q0 2 -1 6q-2 7 -6.5 21t-12.5 37q-20 58 -21 73.5t-1 17.5q0 26 14 45q19 25 38.5 27.5t26.5 2.5q23 0 43 -14q7 -5 12.5 -12.5t12 -22.5t17 -44t26.5 -79q22 -63 30.5 -95.5t8.5 -49.5v-4q-1 -18 -11 -32q-8 -15 -23 -23.5
t-49 -12.5t-100 -7q-149 -6 -233.5 -14t-144.5 -24t-136 -46q-53 -21 -67.5 -23t-19.5 -2q-19 0 -36 10z" />
    <glyph glyph-name="three" unicode="3" 
d="M126 3q-24 3 -53 11.5t-46 16.5q-25 14 -51 40t-39 50q-5 12 -9.5 28t-6.5 28v8q0 46 31 71q20 15 43 15q18 0 37 -8q30 -12 44 -59q7 -24 28.5 -34t72.5 -13h20q33 0 59 5q33 8 79 32q67 37 127 113.5t88 162.5q13 44 20 88t7 65v10q-6 38 -23 50.5t-65 12.5
q-115 0 -218 -72q-27 -19 -40.5 -24.5t-28.5 -5.5q-35 1 -56 23.5t-21 52.5v7q0 9 2.5 16.5t11.5 21.5t29.5 41t56.5 75l6 8q31 41 58 80t38 57q35 62 48.5 119t13.5 92q0 20 -3 37q-5 30 -10 33t-7 3q-10 0 -29 -11q-98 -54 -131 -184q-10 -43 -29 -62t-52 -19
q-32 0 -55 25t-23 59q0 32 23.5 92t55.5 107q53 75 127.5 115.5t125.5 40.5q14 0 27 -3q53 -13 82.5 -48t46.5 -105q7 -26 8 -41t1 -28q0 -12 -1 -28q-12 -154 -95 -294l-13 -21h61q116 0 175 -68q60 -67 60 -173q0 -23 -3 -48q-21 -154 -83 -264q-37 -62 -87.5 -121
t-94.5 -91q-35 -24 -84 -47t-88 -34q-32 -7 -63.5 -8.5t-44.5 -1.5q-33 0 -60 4z" />
    <glyph glyph-name="four" unicode="4" 
d="M521 -4q-7 3 -16 10.5t-15 16.5l-15 20l-2 161l-1 162h-33q-15 -1 -67.5 -5t-117.5 -11q-20 -2 -37 -4q-67 -7 -105 -10.5t-50 -4t-17 -0.5q-10 0 -15 1q-8 2 -15 6l-4 2q-43 22 -46 66q-1 5 -1 9q0 7 2 14q2 10 12 32t33 65q33 63 86.5 172t102.5 211.5t68 145.5
q23 56 49 132t37 122q13 59 29 83.5t46 31.5q9 2 18 2q21 0 41 -12q27 -17 34 -49v-6q0 -33 -25 -122q-27 -98 -68 -203q-11 -27 -52 -114.5t-89.5 -189.5t-83.5 -172q-11 -22 -17.5 -36.5t-6.5 -17.5h5q8 0 29 1q31 3 77 7q47 5 86.5 8t54.5 3q14 0 24.5 1t13.5 3q6 7 9 96
q2 40 5 104.5t7 123.5q5 91 9 143.5t8.5 79t12.5 38.5t20 20q9 7 19.5 9.5t25.5 2.5q47 0 66 -40q3 -5 5 -12t2.5 -18t0.5 -21t-1 -24q-1 -28 -4 -74.5t-7 -117.5q-3 -53 -6.5 -114.5t-4.5 -102.5l-4 -94l17 -9q37 -24 37 -67v-2q-2 -45 -41 -67l-17 -7l1 -163v-106.5
t-2 -51.5t-6 -21q-15 -27 -36.5 -34.5t-35.5 -7.5t-29 6z" />
    <glyph glyph-name="five" unicode="5" 
d="M90 4q-26 9 -40 30t-14 44v9q2 24 16.5 39.5t53.5 34.5q102 51 205 150q64 60 100.5 107t62.5 102q72 150 72 251q0 20 -3 38q-12 63 -38 83q-13 8 -38 8h-6q-31 -1 -61 -11q-47 -16 -104.5 -47.5t-98.5 -64.5q-21 -17 -41 -29.5t-29 -15.5q-11 -3 -21 -3q-20 0 -38 11
q-28 17 -38 50q-2 11 -2 50v29q0 65 3.5 150t8.5 159q3 37 3.5 63.5t0.5 39.5t-1 21q-1 12 -1 20q0 9 1 15q2 12 9 25q9 19 21 28t30.5 10.5t36.5 1.5t41 -1q27 -1 53 -1q110 0 204 20q54 12 70 13t19 1q25 0 38 -7q39 -22 39.5 -43.5t0.5 -22.5q0 -42 -37 -67
q-30 -17 -115 -32t-176 -19l-74 -4l-3 -37q-2 -18 -5 -69t-5.5 -100t-3.5 -63q0 -1 2 -1q4 0 16 5q17 7 45 21q73 37 114.5 48.5t97.5 11.5q33 0 49 -1t27.5 -4.5t27.5 -11.5q66 -30 103 -108q36 -70 36 -158q0 -90 -38 -200q-33 -102 -80 -178t-127 -156
q-63 -65 -110.5 -104.5t-99.5 -71.5q-95 -61 -140 -61q-11 0 -19 3z" />
    <glyph glyph-name="six" unicode="6" horiz-adv-x="697" 
d="M772 580q2 -31 2 -61q0 -183 -89 -318q-32 -44 -77.5 -82t-86.5 -54q-50 -19 -110 -23q-14 -1 -27 -1q-43 0 -77 10q-130 49 -207 202q-6 11 -9.5 19t-4.5 9h-1q-1 0 -4.5 -4t-9.5 -11q-29 -31 -66 -31q-2 0 -22.5 1.5t-43.5 38.5q-11 17 -11 39q0 14 8 43.5t60 122.5
l48 88l10 64q25 161 88 329.5t140 279.5q40 55 84.5 100.5t72.5 59.5q24 12 45 12q38 0 66 -41q11 -18 11 -37q0 -10 -5.5 -30.5t-32.5 -36.5q-31 -18 -77.5 -74t-80.5 -117q-17 -33 -42 -90.5t-45.5 -109t-20.5 -61.5q0 -1 1 -1q2 0 8.5 3.5t18.5 10.5q111 68 206 68
q102 0 185 -79q83 -76 96 -238zM576 325q40 79 40 188v14q0 159 -73 198q-15 9 -26 11q-7 2 -19 2q-7 0 -17 -1q-17 -2 -34.5 -5.5t-28.5 -8.5q-50 -23 -101 -66t-90 -95l-23 -31l2 -58q2 -25 5 -50t7 -39q16 -56 49.5 -106t69.5 -69q22 -10 54 -10q5 0 27 1t54 16
q30 16 59.5 46.5t44.5 62.5z" />
    <glyph glyph-name="seven" unicode="7" 
d="M149 23q-35 19 -41 62q-1 3 -1 7q0 24 22 88q25 74 89 230q28 71 48 121t22 56q1 2 1 4q0 5 -11 5q-14 0 -53 -8q-21 -5 -38 -5q-37 0 -55 22q-26 27 -26 55q0 18 10 36q8 17 24.5 27t52 18t102.5 18q29 4 49 7t22 4q1 2 15 36.5t35 85.5q21 53 50 121t53 120
q22 51 37 85.5t15 36.5q-2 0 -50.5 -6t-120.5 -16q-73 -10 -134 -17.5t-83 -8.5q-19 -2 -29 -3.5t-12.5 -3t-2.5 -3.5q0 -1 1 -3q26 -79 26 -121q0 -27 -10 -40q-13 -17 -31 -27.5t-34 -10.5q-64 0 -83 89q-9 57 -54 108q-45 52 -47 85q1 26 19.5 48.5t45.5 30.5q11 2 48 4
t84 3q62 2 111 6t114 13q193 28 265.5 36t97.5 8q13 0 17 -2q33 -9 50 -34t17 -49q0 -7 -1 -13q-2 -8 -14 -37.5t-29 -66.5q-91 -196 -150 -339q-13 -32 -22.5 -55.5t-11.5 -27.5v-1q0 -6 31 -6q58 0 78 -37q9 -17 9 -36q0 -11 -3 -23q-10 -32 -38 -48q-9 -4 -34.5 -9.5
t-54 -9.5t-43.5 -4q-7 0 -11 -2.5t-8.5 -9.5t-10.5 -22q-19 -41 -57 -135.5t-75 -189.5t-51 -136q-12 -34 -23 -59.5t-16 -31.5q-27 -27 -58 -27q-16 0 -34 8z" />
    <glyph glyph-name="eight" unicode="8" 
d="M653 397q26 -53 26 -107q0 -87 -69 -174q-93 -118 -211 -151q-32 -8 -66 -10q-11 -1 -21 -1q-19 0 -34 3q-71 16 -126.5 76.5t-76.5 143.5q-7 38 -7 77q0 127 77 269l25 45l-29 31q-79 80 -79 197q0 74 31 163q37 105 116 220t162 183q32 25 78 48t76 30q11 2 21 2
q32 0 64 -20.5t46 -65.5q9 -28 9 -67q0 -26 -7 -80t-45 -189q-14 -48 -28 -103.5t-23 -92.5q-8 -36 -19 -83t-20 -83q-14 -51 -18 -75q-2 -11 -2 -18q0 -10 3.5 -17t17.5 -15q33 -20 73 -62.5t56 -73.5zM232 872q-12 -45 -12 -78q0 -13 4.5 -37.5t38.5 -57.5q8 -8 22 -19.5
t29.5 -22t26.5 -17.5q9 -5 12 -5q1 1 7.5 25t14.5 60q10 36 21 83t20 83q8 37 21.5 88t25.5 94q22 77 34 132q9 41 9 55q0 4 -1 6h-2q-6 0 -28.5 -17.5t-49.5 -46.5q-148 -165 -193 -325zM462 187q35 36 46.5 57t11.5 47v5q0 45 -67 94q-27 20 -61 40.5t-61 33.5
q-23 11 -30 11h-2q-6 -6 -19 -31.5t-25.5 -55.5t-17.5 -48q-4 -16 -7 -39t-3 -45q0 -31 2.5 -46t10.5 -30q12 -24 31 -44t33 -23q7 -1 15 -1q31 0 71 18q32 15 72 57z" />
    <glyph glyph-name="nine" unicode="9" 
d="M731 1261q-8 -78 -12.5 -190t-9.5 -307q-3 -126 -3 -208v-74t4 -153q8 -162 8 -236q0 -50 -4 -58q-5 -17 -20 -33t-34 -25q-17 -8 -30 -8h-3q-12 0 -30 6q-21 7 -73.5 33t-107.5 57q-27 15 -74.5 36.5t-93.5 40t-67 25.5q-10 2 -21 8t-19 13q-28 29 -28 59q0 15 7 31
q20 44 75 44h7q24 -3 81.5 -25.5t123 -52.5t113.5 -57l39 -22l-5 94q-2 42 -3 127t-1 168q0 193 -4 193q-1 0 -1 -1q-113 -196 -248 -221q-33 -7 -59 -7q-27 0 -60 8q-82 15 -147 83q-35 35 -55 71t-32 85q-10 38 -10 87q0 13 1.5 52t16.5 94q64 229 238 347q77 54 155 54
q95 0 192 -79q15 -11 25 -18q9 -5 12 -5h1q1 1 2.5 6.5t1.5 11.5q0 32 28 56q23 21 51 21q4 0 9 -1q38 -5 58 -46q5 -11 8 -20q1 -5 1 -13v-13.5t-3 -37.5zM508 1041l19 55l-15 21q-21 31 -56.5 63.5t-62.5 46.5q-26 13 -50 13q-3 0 -17 -1t-45 -22q-101 -66 -151 -186
q-22 -53 -31 -94q-7 -34 -7 -70v-16q1 -34 4.5 -50.5t14.5 -37.5q44 -85 124 -85h13q12 1 25.5 4.5t21.5 7.5q69 37 163 233q13 28 27 61.5t23 56.5z" />
    <glyph glyph-name="colon" unicode=":" horiz-adv-x="293" 
d="M106 293q-29 16 -37.5 40t-8.5 40q0 17 6 34q25 59 83 59q9 0 18 -1q21 -5 41.5 -25.5t25.5 -42.5q1 -7 1 -15q0 -13 -3 -27q-5 -23 -17 -39q-17 -23 -38.5 -27t-31.5 -4q-20 0 -39 8zM105 631q-29 13 -42 39.5t-13 48.5q0 11 3 22q16 57 45.5 70t47.5 13q26 0 53 -17
q44 -32 44 -74q0 -29 -21 -63q-21 -29 -45 -37t-39 -8q-17 0 -33 6z" />
    <glyph glyph-name="semicolon" unicode=";" horiz-adv-x="319" 
d="M108 100q-35 18 -40.5 38.5t-5.5 29.5q0 24 16 48q16 23 23 36t8.5 24t1.5 24v13q-1 25 -4 37t-10 21q-18 27 -18 52q0 29 24 54q25 21 53 21q11 0 22 -3q39 -12 65 -59q26 -55 26 -126v-5q-1 -75 -30 -131q-45 -81 -98 -81q-16 0 -33 7zM109 635q-37 16 -52 54
q-7 20 -7 39q0 31 20 58q28 37 71 37q7 0 15 -1q40 -10 58 -45t18 -62q0 -15 -5 -31q-10 -23 -35.5 -41t-48.5 -18q-5 0 -15 3t-19 7z" />
    <glyph glyph-name="less" unicode="&#x3c;" horiz-adv-x="780" 
d="M521 314q-91 44 -200 87t-172 59q-39 10 -57 20t-31 30q-8 11 -9.5 18t-1.5 13t1 14q1 26 16 45t57 44q136 86 264 185t180 159q35 40 73 40q17 0 35 -8q39 -20 39 -68q0 -26 -16.5 -51t-61.5 -67q-47 -43 -136 -115t-144 -111q-27 -18 -34 -24.5t-7 -9.5q0 -1 2 -2
q4 -2 24.5 -10t48.5 -19q38 -14 109 -46t133 -62.5t73 -39.5q5 -4 9.5 -11t8.5 -14q6 -17 6 -32q0 -22 -13 -41q-22 -32 -67 -33h-4q-10 0 -20 3q-14 4 -38 15t-67 32z" />
    <glyph glyph-name="equal" unicode="=" horiz-adv-x="816" 
d="M91 456q-41 25 -41 64v4q1 43 48 69q6 3 13.5 5.5t21.5 4t42 2t75.5 1.5t122.5 1q106 1 186.5 2.5t96.5 2.5q11 1 21 1q47 0 69 -27q20 -25 20 -51q0 -12 -5 -25q-15 -39 -65 -52q-14 -2 -100 -4.5t-206 -3.5q-79 -1 -131 -1.5t-83 -0.5q-32 0 -48.5 1t-24 2.5t-12.5 4.5
zM128 689q-39 12 -55 41q-8 16 -8 36v4q2 23 12 39q13 21 33.5 28.5t53.5 7.5h9q22 0 67.5 2.5t95.5 6.5q49 3 114.5 5.5t116.5 3.5h64t36.5 -1t19 -3t10.5 -6q29 -22 34 -40.5t5 -27.5q0 -17 -11 -34q-12 -18 -24 -26.5t-39 -11.5t-84 -5q-147 -5 -398 -22h-29q-15 0 -23 3
z" />
    <glyph glyph-name="greater" unicode="&#x3e;" horiz-adv-x="780" 
d="M86 275q-15 11 -25.5 29.5t-10.5 33.5q0 14 7 31t17 26q12 9 74 39.5t133 62.5t109 46q27 11 47.5 19t24.5 10q2 1 2 2q0 3 -5 8q-9 8 -35 26q-56 39 -145 111t-136 115q-44 42 -60.5 67t-16.5 51q0 48 38 68q18 8 36 8q38 0 72 -40q52 -60 180.5 -159t263.5 -185
q42 -25 57.5 -44t16.5 -45v-10q0 -9 -1 -15q-2 -9 -9 -20q-13 -20 -31.5 -30t-57.5 -20q-62 -16 -171.5 -59t-200.5 -87q-44 -21 -68 -32t-37 -15t-24 -4q-28 0 -44 12z" />
    <glyph glyph-name="question" unicode="?" horiz-adv-x="701" 
d="M262 -2q-17 10 -30 29t-17 41q-1 7 -1 14q0 36 27 64q28 27 65 27q7 0 14 -1q35 -9 54 -41.5t19 -58.5q0 -11 -3 -22q-13 -42 -39.5 -53t-42.5 -11q-23 0 -46 12zM239 264q-16 10 -28 34t-27 80q-28 98 -28 147q0 9 1 16q4 20 17 38.5t29 26.5q17 9 35 9q25 0 52 -16
q16 -9 21.5 -10.5t8.5 -1.5q4 0 6 2q10 10 38 67.5t57 124.5t42 106q19 64 25 123t6 87q0 32 -5 52q-14 41 -60 51q-6 1 -12 1q-34 0 -83 -20q-58 -23 -92 -57q-21 -21 -28 -42.5t-7 -55.5v-8q0 -68 28 -116q14 -25 14 -47q0 -10 -3 -20q-8 -32 -42 -48q-16 -6 -32 -6
q-43 0 -77 50q-45 69 -45 189q0 21 1.5 43.5t3.5 34.5q21 93 101.5 160.5t202.5 92.5q30 6 58 6q63 0 115 -28q76 -41 105 -127q14 -48 14 -115q0 -30 -3 -64q-10 -108 -46 -215q-17 -47 -55.5 -131.5t-64.5 -132.5q-61 -108 -128 -121l-20 -3l13 -43q11 -33 11 -54
q0 -5 -1 -9q-4 -22 -25 -41q-13 -13 -22 -16.5t-26 -3.5q-28 0 -45 11z" />
    <glyph glyph-name="at" unicode="@" horiz-adv-x="1204" 
d="M1150 823q4 -30 4 -70q0 -23 -2 -73t-12 -92q-44 -152 -156 -210q-22 -11 -36 -14q-12 -3 -30 -3h-20q-16 0 -28 2.5t-29 12.5q-57 34 -99 112l-21 39l-14 -27q-74 -146 -142 -188q-25 -13 -57 -16q-7 -1 -14 -1q-24 0 -44 8q-77 34 -110 154q-8 30 -8 74q0 13 2 51
t16 93q34 125 102 196q63 60 136 79q18 4 42 4q5 0 22.5 -0.5t39.5 -6.5q2 -1 4 -1q4 0 7 2.5t6 11.5q3 7 10.5 16.5t16.5 17.5q28 22 53 22q29 0 56 -27q20 -20 20 -47q0 -18 -8 -38q-17 -52 -18 -128v-9q0 -71 14 -130q13 -47 30.5 -81t30.5 -36q6 1 17 10.5t22 23.5
t18 28q20 43 26 114q1 19 1 38q0 49 -9 92q-13 55 -41.5 112t-58.5 86q-43 40 -127 69q-22 7 -37 11t-34 5t-53 1h-73l-47 -23q-120 -65 -209 -222.5t-101 -325.5v-21q0 -252 190 -352q43 -22 73 -26q10 -2 20 -2q21 0 43 7q47 15 90 41.5t57 49.5q23 38 65 38t68 -38
q14 -22 14 -45q0 -60 -98 -125q-129 -84 -243 -84q-41 0 -81 11q-169 53 -264 194q-92 147 -92 327q0 27 9.5 148t144.5 332q147 225 337 268q37 8 93 8q57 0 99 -8q202 -41 300 -164q39 -51 72.5 -128.5t44.5 -146.5zM637 732q10 24 14 36q3 10 3 14q0 1 -0.5 4t-4.5 5
q-8 6 -18 6q-13 0 -30 -9q-103 -62 -109 -244v-13q0 -56 8 -60h1q11 0 41 54q42 75 95 207z" />
    <glyph glyph-name="A" unicode="A" horiz-adv-x="758" 
d="M827 89q12 -26 12 -49q0 -18 -11.5 -45.5t-56.5 -35.5h-8q-39 0 -66 35q-6 10 -28 66.5t-51 140.5l-66 187l-26 -3q-20 -3 -52 -7.5t-64 -9.5t-54.5 -9t-24.5 -5q-1 -2 -5 -36.5t-10 -85.5q-11 -111 -20.5 -164t-19.5 -71q-17 -28 -46 -36q-11 -3 -21 -3q-19 0 -37 9
q-18 11 -31 35l-12 24l9 51q3 21 8 60.5t10 81.5t7.5 71.5t2.5 32.5q-2 0 -26.5 -6t-60.5 -16q-48 -13 -73 -19q-18 -4 -30 -4q-4 0 -13 1t-20 9q-38 26 -38 67q0 1 0.5 23t40.5 45q11 5 56 19t94.5 28t74.5 19q11 2 14.5 7t5.5 21q2 12 9.5 59t17.5 108q28 172 41 277
t26 279q7 103 75 110q6 1 11 1q59 0 86 -80q4 -13 14.5 -52t23.5 -87q28 -106 72.5 -263t74.5 -251q23 -74 40 -99q9 -12 13 -23.5t4 -28.5q1 -15 14.5 -59.5t44.5 -132.5q25 -69 44.5 -121.5t24.5 -64.5zM495 539q2 0 2 5q0 9 -8 36q-6 18 -18.5 60t-26.5 88q-13 46 -23 79
t-11 39q-2 0 -10.5 -43t-19.5 -103.5t-19.5 -111t-9.5 -63.5v-1q0 -4 8 -4q4 0 9 1q7 1 27 4t42 7q22 3 38.5 5t19.5 2z" />
    <glyph glyph-name="B" unicode="B" horiz-adv-x="1080" 
d="M1043 599q6 -17 7 -36v-14q0 -16 -1 -38q-4 -63 -12 -147.5t-16 -145.5q-7 -66 -21.5 -94.5t-48.5 -41.5q-9 -5 -23.5 -7.5t-46.5 -4t-92 -3.5q-80 -2 -134 -6t-118 -13q-48 -7 -94 -13t-68 -9q-123 -15 -160 -29q-16 -7 -31 -7q-12 0 -24 5q-28 11 -41 37q-8 16 -8 34
q0 10 2 20q1 3 1 12q0 17 -5 66t-23 192q-13 106 -22.5 180.5t-11.5 84.5q-1 7 -3 10.5t-7.5 4t-16.5 0.5q-45 3 -66 40q-10 18 -10 36q0 20 12 41q8 12 28.5 28t34.5 22v4q0 13 -6 71t-18 156t-20.5 168.5t-8.5 75.5q0 6 -3 13t-8 11q-26 28 -26 59q0 14 11 45t64 35
q18 0 37.5 -9.5t51 -36.5t86.5 -80q32 -31 81 -74t91 -78q88 -72 122.5 -107.5t40.5 -62.5q3 -15 3 -29q0 -87 -125 -156q-16 -8 -27 -14.5t-11 -8.5q0 -1 14 -3t35 -3q125 -9 190.5 -14.5t107 -12t96.5 -17.5q118 -23 173 -54t68 -82zM178 887q1 -6 4 -8q1 -1 3 -1
q4 0 11 3t26.5 13t54.5 28q30 16 50 27.5t21 13.5q-2 3 -31 28t-67 56t-67.5 54t-32.5 23q0 -2 3 -34t8 -75t10 -79.5t7 -48.5zM891 509l3 40l-34 11q-122 37 -347 53q-33 2 -71 5t-62 5q-41 4 -80 5q-19 1 -34 1q-16 0 -34.5 -1.5t-19.5 -5.5q0 -7 8 -72.5t18.5 -150
t19 -149.5t9.5 -71q1 0 1 -1t1 -2.5t4 -1.5h4h8t17 1t30.5 3.5t45.5 6.5q3 0 7 1q44 5 93.5 12t82.5 12q73 11 187 14q116 2 117 8q1 5 5.5 50t10 107.5t10.5 119.5z" />
    <glyph glyph-name="C" unicode="C" horiz-adv-x="799" 
d="M399 -39q-100 33 -171 165q-53 97 -114.5 263.5t-98.5 312.5q-27 114 -37.5 174t-12.5 115q-1 16 -1 31q0 70 16 118q18 57 67 106q32 34 68.5 57.5t90.5 44.5q58 23 86 29t56 6q11 0 24 -1q117 -3 184 -96l25 -34l4 30q7 60 37 85q25 21 52 21q9 0 19 -3q37 -10 55 -51
q4 -11 5 -16t1 -8q0 -4 -1 -8q-1 -8 -6 -21q-4 -12 -5.5 -27t-1.5 -36v-24q0 -40 1 -119q1 -61 1.5 -97.5t0 -56t-2.5 -28.5t-5 -16q-21 -47 -74 -47q-18 0 -28 3t-21 12q-16 11 -30.5 38.5t-40.5 95.5q-23 59 -54 119t-55 90q-8 10 -17.5 18.5t-16.5 12.5q-16 7 -37 7
q-30 0 -71 -14q-70 -22 -120 -66q-20 -19 -28.5 -31t-13.5 -30q-6 -25 -6 -63q0 -72 24 -190q37 -177 120 -402q105 -288 175 -315q19 -10 39 -10t51 10q58 19 70 61q2 11 2 34q0 18 -1 42q-4 56 -13 124.5t-21 123.5q-13 57 -13 90q0 13 2 22q7 33 44 46q16 5 30 5
q43 0 69 -45q12 -25 27 -106t25 -175q9 -69 9 -120q0 -44 -7 -75q-14 -66 -65 -115q-54 -51 -114.5 -65t-94.5 -14q-43 0 -81 13z" />
    <glyph glyph-name="D" unicode="D" horiz-adv-x="894" 
d="M843 529q1 -13 1 -25q0 -42 -9.5 -84.5t-36.5 -98.5q-68 -137 -239 -223q-171 -87 -312 -91q-19 -1 -33 -1h-17t-19 2t-18 7q-41 20 -49 80q-5 35 -15 155.5t-19 249.5q-4 51 -11 136t-15 165q-23 237 -28 336q-2 33 -2 58q0 50 7 68q3 10 3 17q0 1 -0.5 6.5t-5.5 17.5
q-8 21 -8 39q0 21 14 45.5t58 29.5q5 1 9 1q38 0 67 -45q15 -19 90 -98.5t157 -162.5t116 -113q76 -68 142 -133t87 -94q83 -113 86 -244zM620 334q48 56 62 129q5 27 5 54q0 45 -15 87q-16 48 -74 111.5t-212 199.5q-21 19 -54 52.5t-63 66.5t-51.5 54t-24.5 21
q-7 -1 -7 -29v-23.5t9 -104.5q4 -48 10 -109t11 -107q4 -46 9 -109.5t9 -115.5q8 -116 16 -210.5t11 -116.5l3 -18l27 3q13 1 34.5 6.5t42.5 12.5q171 59 252 146z" />
    <glyph glyph-name="E" unicode="E" horiz-adv-x="918" 
d="M101 -56q-25 12 -36.5 32t-11.5 41q0 5 1 10q4 23 28 44.5t78 48.5q28 13 46.5 24.5t18.5 14.5q0 8 -11 65.5t-25 127.5t-25.5 122.5t-13.5 57.5h-2q-4 0 -18 -2q-18 -3 -44 -9q-45 -11 -72 -11h-4q-26 0 -42 12q-30 24 -30 62v7q3 34 29.5 53t89.5 32q25 5 37 8.5
t16.5 6.5t4.5 7q0 7 -17 84.5t-39.5 173.5t-39.5 168q-12 46 -18.5 70t-11 33t-8.5 9q-31 7 -45 35t-14 56v11q3 35 29 53q21 15 43 15q6 0 13 -1q30 -6 86 -41q63 -40 120 -65.5t152 -56.5q144 -50 221 -64.5t176 -14.5h27q46 0 66 -6q24 -7 37 -27q12 -17 12 -43t-12 -43
q-14 -21 -37 -28.5t-77 -8.5h-27q-128 0 -236 25q-35 9 -100.5 29t-127.5 40.5t-86 30.5q-10 4 -17 6l-7 2q0 -1 7 -29.5t17 -69.5t23 -100t24 -108q10 -48 17.5 -80t8.5 -35q2 0 17.5 1t38.5 3q62 7 133.5 11.5t115.5 4.5h7q40 0 62 -10q24 -11 37 -37q9 -18 9 -35
q0 -24 -18 -44q-14 -18 -34.5 -24.5t-59.5 -6.5t-99.5 -4t-110.5 -8.5t-58 -7.5q-2 0 -2 -8q0 -16 11 -69q7 -32 16.5 -79.5t16.5 -87.5t12.5 -67.5t5.5 -28.5q2 0 25.5 9t58.5 23q140 56 257.5 97t165.5 51q8 1 15 1q35 0 59 -25q22 -22 22 -51q0 -10 -3 -21
q-5 -25 -28 -39.5t-91 -35.5q-147 -46 -327 -118.5t-308 -138.5q-53 -28 -69 -31.5t-24 -3.5q-13 0 -26 6z" />
    <glyph glyph-name="F" unicode="F" horiz-adv-x="706" 
d="M253 -4q-18 11 -28 35t-19 79q-3 22 -15 84.5t-25.5 135t-23.5 125.5t-12 57l-17 -5q-17 -5 -43 -12q-48 -16 -61 -16.5t-16 -0.5q-19 0 -33 8q-38 22 -40 43.5t-2 25.5q0 36 31 61q5 4 28 12.5t52 17.5t44 15t20 9t5 8v1q0 5 -3.5 30.5t-8.5 60.5q-5 36 -14 106t-17 141
l-19 165l-42 34q-35 28 -45 45.5t-10 33.5q0 8 2 16q4 21 20 38.5t36 23.5q8 2 16 2q13 0 27 -5q22 -9 57 -35q32 -25 84 -54.5t103 -52.5q98 -43 204.5 -58.5t168.5 -15.5q47 0 85 6q28 6 46 6q7 0 12 -1q21 -4 37 -22q20 -24 20 -52q0 -7 -1 -15q-7 -37 -43 -57
q-21 -11 -65 -17.5t-96 -6.5q-85 0 -203.5 22.5t-196.5 53.5l-47 18l3 -24q2 -12 6.5 -50t9.5 -85q10 -88 17 -137t12 -66.5t9 -17.5h1q28 8 105.5 18t143.5 15.5t92 5.5q9 0 14 -1q30 -7 47 -31t17 -48q0 -6 -1 -11q-4 -18 -19.5 -35.5t-32.5 -23.5q-8 -3 -41.5 -6.5
t-77.5 -7.5q-48 -4 -98 -10.5t-86 -12t-40 -9.5v-1q0 -7 8 -53q9 -52 24 -128q14 -76 27.5 -146.5t18.5 -101.5l11 -68l-11 -24q-16 -34 -37.5 -40.5t-31.5 -6.5q-21 0 -42 13z" />
    <glyph glyph-name="G" unicode="G" horiz-adv-x="908" 
d="M462 -18q-77 19 -167 77q-86 59 -160 166t-110 225q-31 105 -39.5 194.5t-8.5 144.5q0 50 5 95q26 192 110 307.5t208 127.5h10q135 0 298 -131q13 -11 22 -17t11 -6q1 2 3.5 15t4.5 31q5 45 11.5 66t21.5 35q29 24 57 24q19 0 38 -11q37 -22 37 -65q0 -12 -3 -26
q-2 -10 -5.5 -54.5t-5.5 -102.5t-5 -102t-6 -54q-5 -18 -22.5 -34t-37.5 -20q-10 -2 -19 -2q-53 0 -91 73q-38 66 -110.5 127t-145.5 88q-26 9 -44 9h-3q-18 0 -38 -10q-81 -44 -112 -160.5t-31 -219.5q0 -59 8 -123q25 -185 102 -306q45 -72 89 -114t104 -71q22 -11 35 -16
t24 -6.5t27 -1.5q40 0 59 7.5t30 29.5q41 73 41 207v6q0 27 -1.5 54.5t-4.5 42.5l-7 33l-24 -3q-11 -1 -38.5 -7.5t-58.5 -14.5q-78 -21 -117 -21h-9q-38 3 -55 36q-10 18 -10 36q0 9 2 17q6 29 29 47q23 15 106.5 35.5t192.5 39.5t207 29q31 3 47 3.5t24.5 -1t17.5 -6.5
q44 -25 44 -47v-23q0 -43 -42 -67q-22 -12 -86 -17q-27 -3 -46.5 -5t-22.5 -3q-4 -1 -4 -7q0 -5 3 -15q12 -59 12 -132q0 -23 -1 -47q-6 -102 -32 -179q-40 -118 -115 -156q-42 -21 -81 -26t-59 -5q-33 0 -63 7z" />
    <glyph glyph-name="H" unicode="H" horiz-adv-x="819" 
d="M673 -30q-49 23 -49 113q0 16 -4 66.5t-9 112.5q-6 61 -10.5 121.5t-6.5 91.5q-1 30 -3 50t-4 22h-1q-7 0 -44 -6q-42 -6 -100.5 -16t-112 -19.5t-81.5 -15.5q-3 -1 -5 -2.5t-2 -6.5t1.5 -16.5t6 -32t10.5 -51.5q10 -45 18.5 -80.5t12.5 -45.5q9 -22 9 -42q0 -18 -7 -34
q-15 -35 -37.5 -45t-35.5 -10q-20 0 -41 13q-15 9 -24.5 25.5t-19.5 53.5t-24 106q-11 55 -19 92.5t-10 40.5h-1q-2 0 -8 -2q-8 -3 -19 -7q-22 -9 -38 -10t-21 -1q-19 0 -34 5q-31 13 -41 34t-10 36q0 13 5 27q8 24 26.5 37t55.5 23q18 5 32 8.5t17 4.5q2 0 2 7q0 11 -6 39
q-20 93 -33.5 181.5t-14.5 129.5v36q1 12 3 19t7 14q27 35 45.5 36.5t20.5 1.5q34 0 62 -28q5 -6 8 -13t5 -20.5t4 -38.5q3 -36 11.5 -90t18.5 -109t19.5 -93t13.5 -38q2 0 45.5 7.5t104.5 18.5q62 11 113.5 20t69.5 12l39 6l-3 40q-7 84 -13 219t-7 216q0 45 0.5 69.5
t2.5 36t7 19.5q25 44 70 44h2q47 -2 67 -49q5 -11 7.5 -50t3.5 -127q2 -66 5 -143.5t6 -128.5q3 -50 5.5 -84.5t2.5 -37.5q0 -2 8 -2t20 1h8q45 0 69 -31q15 -20 15 -43q0 -18 -8 -37q-16 -34 -75 -45q-15 -3 -21.5 -5t-7 -4.5t-0.5 -5.5v-7q1 -7 2.5 -26.5t2.5 -42.5
q1 -24 6.5 -94.5t12.5 -154.5q6 -72 9.5 -113t4 -61.5t-1 -30t-4.5 -17.5q-4 -10 -11 -20t-14 -15q-16 -11 -30.5 -12t-19.5 -1q-17 0 -31 5z" />
    <glyph glyph-name="I" unicode="I" horiz-adv-x="556" 
d="M53 -62q-23 12 -34 32.5t-11 38.5q0 4 1 9q9 38 50 60q23 11 74.5 26t99.5 24q24 5 35 7.5t12.5 5t1.5 5.5q0 2 -1 5q-5 29 -20 146.5t-30 241.5t-20 173q-6 61 -13.5 165t-10.5 180q-2 27 -3 42t-2 22t-3 8t-3 1l-4 -1q-68 -16 -108 -24.5t-56.5 -11t-24.5 -2.5
q-6 0 -10 1q-10 1 -19 7q-37 19 -41 62v9q0 9 1 15q2 9 9 20q10 15 23.5 24.5t42 18t84.5 20.5l109 24l4 23q4 22 24 42q27 25 54 25q30 0 59 -31l18 -22l86 17q49 9 71.5 12.5t35.5 3.5q6 0 11 -1q15 -2 27 -8q41 -24 41.5 -46.5t0.5 -23.5q0 -43 -39 -64q-8 -4 -33 -10
t-54 -12q-30 -5 -61 -11.5t-48 -9.5l-39 -9l4 -84q4 -87 11.5 -197.5t15.5 -183.5q5 -51 16 -138t22.5 -179t20.5 -156t11 -68q1 -1 10 -1t25 1q32 1 79 5l111 8l25 -12q25 -13 36 -33t11 -37q0 -6 -1 -11q-4 -19 -19 -36.5t-32 -23.5q-8 -2 -46.5 -6t-88.5 -8
q-50 -3 -89 -7t-50 -7q-9 -2 -25 -4t-32 -3q-40 -2 -104 -15t-97 -26q-34 -15 -47.5 -15.5t-16.5 -0.5q-19 0 -37 9z" />
    <glyph glyph-name="J" unicode="J" horiz-adv-x="792" 
d="M596 -14q-8 3 -25.5 16t-37.5 29q-51 40 -136.5 97t-175.5 110q-52 30 -81 47.5t-56.5 36.5t-75.5 53q-58 41 -80 63t-24 43q-1 7 -1 14q0 36 33 65q17 15 62.5 46.5t99 66.5t94.5 60.5t50 27.5q7 1 14 1q34 0 57 -25q21 -21 21 -48q0 -10 -3 -21q-4 -15 -14.5 -27.5
t-35 -31t-71.5 -49.5q-40 -27 -67 -46t-27 -21q0 -3 33.5 -25.5t80.5 -52t91 -54.5q32 -19 73.5 -44.5t71.5 -45.5t50.5 -32.5t21.5 -12.5v2q0 5 -2 24q-2 25 -6 62q-36 310 -36 646v18q0 70 -1 108t-2.5 52.5t-3.5 14.5q-7 0 -54.5 -9.5t-103.5 -22t-92 -20.5
q-55 -14 -69 -15t-17 -1q-23 0 -39 9q-39 23 -39 66v2q0 44 41 66q37 18 271 66q55 11 124 27.5t119 30.5q50 13 89 22t47 9q29 0 50.5 -18t28.5 -49v-6q0 -15 -8 -33q-10 -23 -24 -33q-7 -4 -30.5 -12t-52.5 -17l-69 -19l-5 -47q-2 -28 -2 -97v-51q0 -110 3.5 -230
t7.5 -187q4 -47 12.5 -135t17.5 -177q10 -95 14.5 -151t4.5 -71v-5q-9 -39 -36 -52.5t-46 -13.5q-17 0 -34 7z" />
    <glyph glyph-name="K" unicode="K" horiz-adv-x="936" 
d="M183 -2q-16 7 -26 21t-18 46t-19 94q-9 50 -16.5 93.5t-10.5 61.5q-3 23 -8 34.5t-13 20.5q-28 29 -28 62q0 20 11 42q2 5 2.5 9.5t0.5 8.5q0 6 -1 16q-1 15 -5.5 42.5t-13.5 72.5q-20 116 -32.5 200t-27.5 210q-7 57 -12.5 104.5t-7.5 63.5q-2 14 -2 26q0 57 40 76
q17 8 34 8q12 0 24 -4q29 -8 45 -36q4 -6 7.5 -17.5t7 -35.5t9.5 -69.5t15 -120.5q9 -74 23.5 -176t28 -182t16.5 -87h1q4 0 24 12q23 13 52.5 32.5t54.5 37.5q96 69 122 174q10 38 20.5 123.5t18.5 193.5q4 47 8 83t6 44q6 16 22.5 31.5t32.5 20.5q9 2 17 2q17 0 34 -8
q25 -12 38 -37q5 -11 5.5 -20.5t0.5 -16.5q0 -13 -1 -33q-14 -219 -33 -336t-50 -175q-54 -103 -150 -174q-9 -6 -15 -11t-6 -7q0 -1 9 -4t23 -5q190 -42 433 -190q74 -45 103 -67t36 -38t7 -32q0 -12 -4 -25q-10 -30 -38 -44q-15 -8 -29 -8h-6q-18 1 -51.5 19t-97.5 59
q-133 84 -250 129t-258 67l-45 7l3 -14q12 -76 25 -145.5t20 -102.5q7 -31 7.5 -39.5t0.5 -11.5q0 -11 -3 -20q-13 -41 -36 -52t-39 -11q-17 0 -35 8z" />
    <glyph glyph-name="L" unicode="L" horiz-adv-x="852" 
d="M751 32q-95 12 -282 12q-93 0 -209 -3l-107 -2l-22 14q-24 15 -33.5 40t-9.5 75q0 177 -48 552q-11 92 -20 165q-11 86 -19 149.5t-13 107.5t-8 72.5t-4 42.5t-1 21v6q0 8 1.5 11.5t3.5 5.5t4 6q29 44 67 44q18 0 39 -11q17 -9 26 -23.5t15.5 -50t14.5 -107.5
q6 -57 18.5 -160.5t25.5 -204.5q25 -209 35 -305.5t15 -186.5l7 -103l184 3q61 1 108 1q94 0 130 -4q23 -2 36.5 -3t17.5 -1h2v1q0 3 -7 23q-8 22 -20 54q-27 65 -29.5 84.5t-2.5 27.5q0 21 10 34q19 27 38.5 31.5t27.5 4.5q20 0 38 -11q12 -9 21 -19.5t19 -31.5t24 -61
q12 -31 28.5 -70.5t29.5 -68.5q24 -53 27 -70.5t3 -23.5q0 -20 -10 -37q-10 -16 -31 -28.5t-40 -12.5q-8 0 -36 3.5t-64 7.5z" />
    <glyph glyph-name="M" unicode="M" horiz-adv-x="1108" 
d="M1066 20h-2q-11 5 -19 11.5t-16.5 25t-21.5 56.5t-33 105.5t-50 172.5q-2 7 -5 15q-22 77 -52 177.5t-56 187t-37 120.5q-2 6 -4 6t-5 -11.5t-9 -38.5t-16 -74q-26 -128 -50.5 -226.5t-37.5 -129.5q-32 -70 -93 -71q-19 0 -39.5 10t-32.5 24q-17 23 -56.5 91.5
t-81.5 149.5q-21 42 -33.5 63t-14.5 21q-1 0 -1 -1q2 -9 10 -60.5t18.5 -117t19.5 -118.5q14 -95 22.5 -169t8.5 -97v-8q-19 -61 -75 -61q-45 0 -83 46q-58 73 -143 159t-128 115q-43 28 -43 66q0 17 9 36q25 44 67 44q23 0 51 -13q11 -6 36.5 -26t52.5 -45q26 -24 44 -38.5
t20 -14.5q0 4 -7.5 56.5t-19.5 128.5q-68 429 -71 535q0 7 -6.5 29t-15.5 47q-25 60 -25 99q0 41 28 58q24 18 48 18q26 0 52 -22q10 -8 17 -21.5t15 -39.5q6 -20 19 -53t28 -63q20 -43 65 -134t96.5 -191.5t89 -173.5t39.5 -73t4.5 8t5.5 20q8 35 30.5 141.5t44.5 217.5
t30 157q7 36 13.5 64.5t10.5 35.5q21 40 71 40q54 0 75 -49q38 -77 258 -826q28 -96 49.5 -166.5t27.5 -82.5q4 -10 8 -26.5t5 -31.5q1 -10 1 -18t-1 -13q-2 -10 -10 -21q-28 -40 -63 -40q-16 0 -33 8z" />
    <glyph glyph-name="N" unicode="N" horiz-adv-x="814" 
d="M756 -43q-14 8 -25.5 23.5t-26.5 45.5q-7 13 -32 54.5t-57 92.5t-70 111.5t-65 102.5q-99 159 -167.5 262.5t-75.5 103.5q0 -2 8 -37.5t21 -87.5q65 -253 84 -440q3 -21 3 -39q0 -76 -53 -95q-15 -8 -31 -8q-46 0 -90 77q-59 94 -110.5 173.5t-80.5 119.5
q-34 45 -41.5 64t-7.5 32q0 9 3 18q8 28 32 42t44 14q8 0 16 -2q17 -4 34 -19t41 -48q14 -18 22 -28.5t9 -10.5q0 5 -17.5 75t-42 165.5t-48 183.5t-36.5 135q-16 52 -16 67v17q0 25 12 41q20 25 39.5 29.5t28.5 4.5q20 0 39 -10q7 -5 23.5 -23.5t34.5 -42.5
q18 -25 41.5 -55.5t40.5 -52.5q180 -226 344 -492q9 -14 15 -23t7 -9q0 2 -4 26.5t-10 60.5q-17 102 -43.5 310.5t-40.5 356.5q-2 24 -2 42q0 21 3 35q6 25 29 43q10 10 19 13t24 3q44 -1 66 -34q5 -6 9 -22.5t8.5 -55t11.5 -111.5q32 -307 74 -566t83 -395
q31 -101 35.5 -130.5t4.5 -41.5q0 -27 -11 -41q-17 -25 -37.5 -29.5t-29.5 -4.5q-20 0 -38 10z" />
    <glyph glyph-name="O" unicode="O" horiz-adv-x="797" 
d="M648 1139q80 -164 104 -372q9 -81 9 -163q0 -125 -22 -251q-20 -115 -55.5 -181.5t-100.5 -107.5q-69 -49 -152 -49q-44 0 -91 13q-251 58 -318 405q-33 167 -33 294q0 54 6 101q4 24 8.5 56t7.5 58q38 250 153 369q29 27 75.5 44t93.5 18q26 -1 64 -12t72 -27
q61 -30 101 -73.5t78 -121.5zM546 249q25 44 40.5 139t15.5 204v11q0 279 -96 469q-24 50 -47.5 76.5t-58.5 43.5q-33 17 -55 21q-8 1 -15 1q-14 0 -28 -4q-21 -5 -37.5 -23t-38.5 -61q-33 -68 -52 -166q-12 -61 -12 -103q0 -24 4 -42q4 -14 4 -27q0 -26 -16 -46
q-4 -6 -6 -12q-2 -5 -2 -13v-9.5t1 -30.5q5 -62 15.5 -132.5t24.5 -124.5q49 -205 189 -239q31 -8 55 -8q23 0 41 7q19 8 40 28t34 41z" />
    <glyph glyph-name="P" unicode="P" horiz-adv-x="820" 
d="M755 941q85 -84 85 -174q0 -51 -27 -104q-35 -74 -123 -131q-162 -106 -392 -135q-26 -3 -37.5 -5t-13.5 -5q-1 -1 -1 -4q0 -2 1 -6q1 -6 5 -36.5t10 -71.5q6 -40 12 -76t10 -51q3 -15 5 -30q1 -7 1 -14q0 -6 -1 -11q-8 -43 -43 -61q-17 -9 -35 -9q-19 0 -38 10
q-17 9 -28 29.5t-21 75t-25 164.5l-10 70t-4 30q-1 0 -13 2.5t-30 6.5q-81 17 -101 51q-8 12 -10 22q-1 7 -1 16v11q2 30 15 43q20 21 42 26q7 2 14 2q17 0 40 -8l25 -7l-3 17q-1 9 -8 63t-16 129q-46 384 -58 451q-3 17 -9 27.5t-19 22.5q-32 34 -32 66q0 29 27 56
q20 20 45 20q37 0 84 -42q63 -52 185 -128t256 -146q97 -50 148.5 -84t88.5 -72zM677 743q5 11 6 17v4q0 5 -2.5 11t-9.5 20q-17 34 -67.5 70.5t-161.5 94.5q-80 41 -126 67t-103 61q-23 15 -39 24q-13 8 -16 8h-1q0 -4 9 -85t24 -201l35 -284h15q7 0 27 2.5t43 5.5
q137 22 239 73t128 112z" />
    <glyph glyph-name="Q" unicode="Q" horiz-adv-x="847" 
d="M858 -10q4 -11 4 -22q0 -16 -10.5 -37.5t-38.5 -33.5q-14 -6 -25 -6h-4q-10 0 -24 4q-7 2 -16.5 9t-17.5 16q-7 8 -26 33t-39 53t-31 45h-1q-2 0 -8.5 -3t-17.5 -8q-68 -35 -156 -39q-14 -1 -26 -1q-34 0 -65.5 7t-73.5 30q-185 94 -236 363q-18 86 -20 225v21
q0 137 12 388l8 161l-11 16q-15 23 -15 46q0 13 9 39t51 39q9 2 20 2q16 0 41 -6.5t44 -23.5q8 -8 13 -16.5t5 -12.5q0 -11 122 -101q86 -65 203 -162t177 -153q77 -70 110.5 -141t42.5 -179q3 -33 3 -65q0 -158 -79 -278q-12 -19 -20.5 -32.5t-8.5 -15.5q0 -1 14.5 -22.5
t35.5 -50.5q21 -30 36.5 -54.5t18.5 -33.5zM679 340q24 62 24 139q0 24 -2 50q-5 78 -23 117.5t-71 89.5q-56 53 -161 142.5t-177 144.5l-69 51l-3 -33q-5 -48 -8 -148.5t-4 -199.5v-46q0 -64 2 -96q19 -311 174 -379q34 -16 73 -16q28 0 58 9q5 2 9 3q20 5 26 11q2 2 2 6
q0 6 -6.5 19.5t-32.5 50.5q-5 9 -12 18q-113 175 -113 209q0 28 19.5 51.5t46.5 29.5q6 1 12 1q15 0 34.5 -8t34.5 -26q7 -8 11.5 -15t4.5 -10q1 -9 19 -42t42.5 -72.5t44.5 -67.5t25 -28q2 2 8 14.5t12 30.5z" />
    <glyph glyph-name="R" unicode="R" horiz-adv-x="847" 
d="M846 212q1 -7 1 -14q0 -26 -21 -49q-17 -21 -41 -25q-5 -1 -11 -1q-24 0 -69 10q-33 6 -101 26t-138 42.5t-107 37.5q-13 5 -22.5 8t-10.5 3v-1q0 -4 5.5 -24t15.5 -51t17 -57.5t7 -32.5q0 -40 -32 -62q-20 -13 -43 -13q-13 0 -27 4q-9 3 -19 9.5t-16 13.5
q-16 22 -50.5 133.5t-71.5 258t-63 274.5q-19 96 -37.5 210t-31.5 208t-13 121q0 21 -21 62q-10 19 -14 29t-5 18v6q0 5 1 12q5 24 23 42t41 23q6 1 13 1q42 0 73 -49q27 -45 58 -79.5t94 -87.5q167 -146 306 -227q118 -70 176 -119.5t82 -100.5q31 -59 31 -114
q0 -49 -24 -95q-51 -110 -257 -188q-19 -7 -29 -13q-9 -5 -9 -6t1 -1q67 -23 128 -41t96 -25q62 -12 86.5 -28.5t28.5 -47.5zM353 485q105 18 202 65q110 53 110 104v9q0 38 -45 80t-157 108q-133 79 -257 181q-24 20 -41 32q-16 11 -18 11v-2q0 -11 9.5 -72.5t23.5 -140.5
t24 -132q7 -35 17.5 -83t19.5 -86l21 -87l19 3q9 1 29 4t43 6z" />
    <glyph glyph-name="S" unicode="S" horiz-adv-x="1070" 
d="M486 29q-169 28 -273 83q-68 39 -128.5 99.5t-88.5 118.5q-16 33 -21 61.5t-5 58.5v21q0 122 117 173q57 30 91.5 32.5t44.5 2.5q54 0 133 -17q55 -10 94 -24.5t105 -49.5q60 -31 79.5 -49.5t19.5 -45.5v-8q0 -31 -19 -52q-22 -25 -56 -25q-14 0 -33.5 8t-62.5 32
q-56 30 -98 44.5t-104 23.5q-31 5 -56 5q-10 0 -19 -1q-29 -3 -56 -19q-10 -5 -14.5 -9.5t-6 -12t-1.5 -23.5v-8q0 -29 12 -55q15 -30 53 -67q53 -53 113 -83t156 -50q32 -8 61.5 -10t82.5 -2q40 0 62 1t38 4t36 9q167 53 171 156q-2 55 -33 117q-18 32 -55 71.5t-78 68.5
q-43 30 -156.5 98t-204.5 119q-101 56 -154 101.5t-77 97.5q-27 52 -27 103q0 53 29 105q78 144 252 144h16q109 -6 204 -91q14 -12 20.5 -17t9.5 -5h1q3 0 4 5q3 9 16.5 30t29.5 44t28 36q30 37 68 37q28 0 50 -18.5t25 -44.5q1 -7 1 -14q0 -14 -4 -25q-6 -16 -29 -46
q-35 -47 -53.5 -87.5t-34.5 -103.5q-13 -42 -40 -50.5t-40 -8.5q-27 0 -51 18q-7 6 -16 19t-17 26q-18 33 -55 70t-68 53q-36 17 -71 17q-9 0 -17 -1q-45 -5 -72 -35t-27 -58q0 -12 5 -24q12 -34 50.5 -64.5t137.5 -85.5t207.5 -120.5t153.5 -96.5q132 -95 190 -220
q39 -86 39 -161q0 -63 -27 -119q-59 -122 -234 -183q-100 -31 -209 -31q-56 0 -114 8z" />
    <glyph glyph-name="T" unicode="T" horiz-adv-x="706" 
d="M620 -10q-13 5 -25 16.5t-20 25.5q-3 6 -7.5 34t-11 92t-17.5 177q-6 59 -11 113.5t-7 77.5q-7 68 -12.5 148t-13.5 209q-5 73 -8.5 128.5t-5.5 67.5l-3 22l-24 -3q-44 -5 -119 -12.5t-131 -11.5q-31 -2 -52 -4t-23 -3v-1q0 -3 7 -17q8 -16 20 -39q17 -32 23 -48.5
t6 -30.5q0 -47 -28.5 -61.5t-46.5 -14.5q-23 0 -47 16q-8 6 -20 23.5t-25 41.5q-64 119 -90 158q-19 30 -19 56q0 25 17 47q10 15 23.5 22.5t40 9t61.5 1.5h40q174 1 349 25l22 3l2 44q1 35 9.5 52.5t31.5 32.5q18 12 39 12q8 0 16 -2q30 -6 47 -31q4 -6 7.5 -19t5.5 -27
t4 -23.5t4 -11.5h2q9 0 59 8q56 9 128.5 22t124.5 24q45 10 62.5 12t25.5 2q13 0 22 -3q15 -5 29 -18q14 -12 19.5 -27.5t5.5 -43.5v-10q0 -36 -5 -107q-4 -55 -8 -95t-7 -47q-18 -42 -41.5 -46.5t-30.5 -4.5q-32 0 -57 26q-11 11 -15.5 24t-4.5 27v19q0 21 3 55q2 31 3 52
t1 23q-1 0 -11 -1.5t-24 -4.5q-16 -3 -59.5 -10.5t-94.5 -16.5l-120 -19l3 -32q2 -16 6.5 -83.5t10.5 -155.5q19 -313 57 -670q6 -54 8.5 -85t2.5 -43q0 -8 -1 -11q-12 -34 -46 -51q-17 -8 -24.5 -8.5t-8.5 -0.5q-11 0 -23 5z" />
    <glyph glyph-name="U" unicode="U" horiz-adv-x="909" 
d="M99 9q-7 5 -15 12.5t-12 15.5q-9 13 -9 39q0 31 12 80q4 15 6 39t2.5 73.5t0.5 141.5v32q0 173 -10 325q-11 167 -36 365q-6 43 -10.5 86.5t-5.5 66.5q-2 24 -2 37q0 12 2.5 19t8.5 15q24 39 67 39t66 -38q6 -8 9.5 -22.5t4.5 -39.5q2 -21 6.5 -63t10.5 -86
q26 -202 36.5 -368t10.5 -358v-221l26 10q13 5 55 20.5t95 34.5q54 19 135.5 50t147.5 56.5t72 29.5q0 4 -12 35q-13 34 -31 76t-32 72q-44 95 -82.5 203t-57.5 193q-17 73 -25.5 138.5t-8.5 94.5q0 12 1 19q9 40 34 51t40 11q20 0 39 -12q16 -10 24.5 -21.5t13 -33.5
t10.5 -66q15 -128 44 -223q18 -59 50 -142t63 -150q15 -34 34.5 -80t33.5 -82q28 -70 30.5 -90.5t2.5 -28.5q0 -24 -11 -44q-10 -20 -25.5 -32t-43.5 -22q-13 -5 -43.5 -17t-64.5 -26q-42 -17 -76.5 -30.5t-84.5 -31.5t-138 -50q-54 -19 -113 -41.5t-95 -37.5
q-67 -28 -86.5 -30.5t-27.5 -2.5q-21 0 -36 10z" />
    <glyph glyph-name="V" unicode="V" horiz-adv-x="815" 
d="M371 0q-16 11 -26 29t-10 37q-1 31 -33.5 132t-80.5 229t-96 240q-40 92 -95.5 199.5t-94.5 168.5q-24 36 -24 66q0 34 31 58q9 8 18.5 11t24.5 3q24 0 40.5 -8.5t35.5 -36t51 -84.5q125 -222 244 -527q16 -41 28 -72t15 -38q2 -4 3 -4h1q3 2 7 15.5t12 41.5
q94 336 195.5 610t156.5 337q26 22 54 22q15 0 30 -6q44 -18 48 -71q0 -7 -12 -35t-29 -63q-32 -64 -76 -175t-79 -210q-16 -51 -47 -152t-60 -200t-40 -141q-8 -32 -21.5 -90t-25.5 -115q-14 -59 -24.5 -100t-15.5 -50q-17 -25 -36.5 -29t-28.5 -4q-21 0 -40 12z" />
    <glyph glyph-name="W" unicode="W" horiz-adv-x="1164" 
d="M850 35q-18 10 -33.5 33.5t-39.5 74.5q-15 31 -62.5 119.5t-104.5 191.5t-99.5 177.5t-45.5 76.5q-2 -1 -4 -15.5t-3 -34.5q-2 -22 -6.5 -69t-9.5 -98q-6 -51 -11 -112.5t-8 -104.5q-3 -54 -6 -83t-7.5 -44t-12.5 -25q-26 -29 -62 -29h-5q-40 2 -63 37q-5 7 -15.5 39.5
t-21.5 74.5q-47 166 -76 260t-73 218q-53 154 -83.5 230.5t-59.5 130.5q-22 41 -24.5 54.5t-2.5 20.5q0 13 6 25q23 40 44 42.5t25 2.5q33 0 63 -30q53 -51 197 -469q18 -54 31.5 -89t15.5 -35q3 5 7.5 55.5t9.5 117.5t7 121q1 46 4.5 70t11.5 36t23 21q17 10 40 10h8
q27 -3 48 -17q16 -12 45 -54t83 -136.5t147 -262.5l129 -232l4 25q1 11 4.5 42.5t6.5 67.5q4 37 10.5 87.5t13.5 90.5q10 57 30 154.5t41 191t33 138.5q49 181 63 209q19 35 39 38.5t26 3.5q27 0 50 -16q28 -19 28 -59q0 -19 -8 -52t-30 -106q-11 -39 -32 -126.5t-41.5 -183
t-32.5 -159.5q-15 -78 -23.5 -142.5t-16.5 -158.5q-16 -182 -35.5 -257t-55.5 -88q-19 -9 -42 -9q-22 0 -38 10z" />
    <glyph glyph-name="X" unicode="X" horiz-adv-x="766" 
d="M731 30q-30 14 -52 68q-19 46 -82 156t-148 244q-14 23 -23 36t-14 19t-8 6q-2 0 -5 -3q-8 -13 -40 -76t-67 -136t-53 -115q-33 -76 -52.5 -111t-35.5 -48q-24 -18 -49 -18q-6 0 -12 1q-31 5 -52 34q-12 17 -12 38q0 26 18 59q9 15 25 50.5t33 74.5q18 40 52.5 111
t69.5 140l82 161l-36 54q-33 49 -98.5 141.5t-126.5 176.5t-80 108q-13 15 -24.5 30t-15.5 22q-8 17 -8 34q0 20 12 39q22 35 64 35q23 0 39.5 -9.5t41.5 -36.5q23 -25 92 -119t161 -226q20 -29 32.5 -46.5t20 -26t9.5 -9.5t3 -1q3 0 4 2q3 5 23 42t47 90q58 110 92.5 169.5
t73.5 116.5q33 50 52 65t42 15h6q30 -1 52 -22.5t23 -52.5q0 -18 -9.5 -37t-40.5 -63q-30 -44 -59 -94t-69 -126q-19 -37 -44.5 -84.5t-45.5 -84.5t-33.5 -63.5t-13.5 -29.5t21 -38t52 -84q273 -431 273 -504v-3q0 -39 -28 -57.5t-51 -18.5q-14 0 -28 5z" />
    <glyph glyph-name="Y" unicode="Y" horiz-adv-x="1041" 
d="M939 27q-22 5 -58 12t-70 12t-78 11.5t-77 11.5q-115 20 -219.5 27.5t-285.5 9.5q-62 1 -99.5 1.5t-57 2t-27.5 3.5t-12 5q-31 24 -31 64v7q3 45 46 65q10 6 20 8.5t27.5 3t51.5 0.5q108 -1 243.5 -6t202.5 -12q34 -4 82 -10.5t89 -12.5q183 -31 210 -31q4 0 5 1v1
q0 5 -9 49q-10 48 -25 119q-16 71 -28 127.5t-16 72.5l-7 33l-38 -27q-17 -12 -52 -34t-71 -44q-37 -22 -70.5 -43t-48.5 -32q-50 -36 -74 -43.5t-37 -7.5q-17 0 -33 7q-9 4 -18.5 9.5t-14.5 10.5q-9 10 -15.5 23t-11.5 40.5t-10.5 78t-13.5 135.5q-4 41 -13 112.5
t-17.5 133t-10.5 71.5h-1q-1 0 -6 -7q-5 -9 -12 -24q-37 -92 -100 -92q-31 0 -51.5 18t-25.5 48q-1 4 -1 7q0 8 3 16q3 12 15 34q62 120 73 267q6 99 34 120q19 17 49 17q17 0 39 -6q61 -14 79 -77q25 -84 58 -289t48 -370l5 -55t3 -23q6 0 41 21q37 21 87 53t92.5 61
t57.5 42q9 9 16.5 15t10.5 7q2 0 2 11q0 18 -6 68q-25 202 -25 362v23q0 50 3 76t10.5 39.5t22.5 23.5q20 14 45 14q7 0 14 -1q32 -6 52 -32q4 -5 6.5 -11t3.5 -16t1 -30t-1 -53q-1 -23 -1 -47q0 -340 145 -941q18 -76 24.5 -113t6.5 -56v-8q-2 -20 -12 -32
q-20 -28 -38.5 -31.5t-27.5 -3.5q-26 0 -67 10z" />
    <glyph glyph-name="Z" unicode="Z" horiz-adv-x="765" 
d="M-27 6q-28 13 -39.5 37t-11.5 44q0 9 2 19q2 9 6 16.5t14 22t31 41.5t59 75q107 134 177 234.5t157 244.5q216 356 255 490q2 5 2 7v1q-1 3 -7 3t-21 -2q-55 -7 -143 -27t-152 -40q-35 -12 -60.5 -20.5t-30.5 -10.5q-4 -2 -4 -9t4 -25.5t14 -53.5t27 -93q10 -33 16.5 -60
t6.5 -34q-3 -49 -31 -64t-46 -15q-22 0 -45 14q-13 9 -22 26t-21 56q-14 46 -31.5 110.5t-31 118.5t-13.5 63q0 19 10.5 39.5t27.5 33.5q15 12 46.5 25t98.5 37q136 45 259 68.5t177 23.5q20 0 33 -3q89 -27 100 -120q1 -7 1 -16q0 -133 -259 -560q-95 -160 -163.5 -261.5
t-146.5 -201.5q-20 -26 -33 -43t-13 -19q2 0 34.5 1.5t81.5 3.5q68 3 130 3q97 0 177 -7l35 -4l-10 63q-8 51 -10.5 75t-2.5 37v8q2 14 7 23q4 8 12 16.5t16 14.5q10 7 18 8.5t18 1.5h10q16 -1 25.5 -5t20.5 -15q10 -10 16 -20.5t10.5 -29.5t9.5 -55q4 -24 9.5 -55.5
t10.5 -56.5q11 -60 11 -96q0 -34 -10 -46q-14 -20 -29.5 -28t-43.5 -8h-7q-32 1 -93 10q-85 11 -206 11q-27 0 -57 -1q-158 -3 -260 -21q-39 -7 -72 -7t-50 7z" />
    <glyph glyph-name="bracketleft" unicode="[" horiz-adv-x="616" 
d="M137 -9q-20 6 -35.5 21t-22.5 33q-9 21 -14.5 126.5t-10.5 330.5q-4 177 -4 321q0 96 2 177q5 203 19 255q8 25 29 45.5t47 28.5q47 12 132 12h13q95 -1 158 -15q22 -6 40 -24.5t23 -38.5q1 -4 1 -9q0 -17 -9 -35q-11 -23 -30 -35q-18 -9 -56 -9q-32 0 -78 6
q-21 3 -48 3.5t-48.5 -1t-25.5 -4.5q-2 -3 -4.5 -50.5t-4.5 -117.5q-3 -88 -3 -193q0 -106 4 -264q2 -81 3 -142t2.5 -104.5l2.5 -72.5t2.5 -46.5t3 -26t3.5 -11.5t5 -3q4 0 34.5 5.5t71.5 13.5q91 18 115.5 20t32.5 2q27 0 39 -8q19 -11 29.5 -30.5t10.5 -35.5q0 -5 -1 -9
q-9 -42 -41 -59q-9 -4 -48.5 -13t-92.5 -19.5t-101 -18.5q-23 -3 -53.5 -5.5t-56.5 -2.5t-35 3z" />
    <glyph glyph-name="backslash" unicode="\" horiz-adv-x="553" 
d="M389 10q-15 6 -26 24t-27 68.5t-44 153.5q-12 45 -28.5 107.5t-29.5 112.5t-31 119.5t-32 126.5q-57 221 -105 465q-8 36 -11.5 57t-4 29.5t-0.5 12.5v8q2 7 5 15q24 50 68 50q7 0 14 -1q55 -8 71 -73q14 -81 45.5 -227.5t61.5 -264.5q60 -239 112.5 -434t67.5 -242
q8 -20 8 -38q0 -20 -9 -36q-15 -28 -35.5 -35t-32.5 -7q-18 0 -37 9z" />
    <glyph glyph-name="bracketright" unicode="]" horiz-adv-x="615" 
d="M372 -9q-24 3 -78 12.5t-107.5 20t-75.5 15.5q-36 10 -48.5 33t-12.5 41q0 14 5 28q4 10 11 19.5t14 15.5q12 11 49 11q51 0 148 -20q40 -8 70.5 -13.5t34.5 -5.5q3 0 5 3t3.5 11.5t3 26t2.5 46.5l2.5 72.5t3 104.5t2.5 142q4 158 4 264q0 105 -3 193q-2 70 -4.5 117.5
t-4.5 50.5q-4 3 -25.5 4.5t-48.5 1t-48 -3.5q-46 -6 -78 -6q-38 0 -55 9q-20 12 -30 32.5t-10 37.5q0 5 1 9q5 20 23 38.5t40 24.5q63 14 114 14.5t57 0.5q85 0 132 -12q26 -8 47 -28.5t29 -45.5q15 -40 20 -305q1 -50 1 -116q0 -65 -1 -146q-2 -162 -6 -315t-9 -227
q-4 -72 -13 -100.5t-33 -41.5q-23 -17 -75 -17q-25 0 -56 4z" />
    <glyph glyph-name="asciicircum" unicode="^" horiz-adv-x="581" 
d="M88 698q-35 25 -38 65q0 9 6 28t15 40q24 58 60.5 177.5t65.5 234.5q9 37 15.5 57t13.5 30.5t18 19.5q22 17 46 17q9 0 18 -2q35 -7 55 -40q12 -24 45.5 -133t69.5 -237q13 -45 25 -85.5t17 -55.5q11 -27 11 -49t-11 -38q-25 -33 -46 -33h-22q-40 0 -63 32
q-22 35 -64 189q-10 39 -18 65.5t-10 27.5q-1 -1 -8.5 -23t-16.5 -55q-21 -69 -41.5 -123.5t-35.5 -77.5q-21 -30 -40.5 -35.5t-30.5 -5.5q-18 0 -36 10z" />
    <glyph glyph-name="underscore" unicode="_" horiz-adv-x="764" 
d="M96 -45q-44 21 -46 66v7q0 38 32 60q38 25 456 37q52 1 78 1t37.5 -1.5t18.5 -6.5q42 -24 42 -70q0 -16 -3.5 -25t-14.5 -21q-19 -20 -41 -26q-11 -2 -64 -5.5t-123 -5.5q-211 -7 -320 -19q-8 -1 -15 -1t-13 1q-11 2 -24 9z" />
    <glyph glyph-name="grave" unicode="`" horiz-adv-x="394" 
d="M226 841q-61 29 -128 177q-36 76 -42 103t-6 39q0 22 10 37q27 40 65 40q16 0 33 -6t27 -20t21 -46q21 -56 48.5 -108.5t50.5 -79.5q39 -41 39 -73q0 -7 -2 -13q-10 -40 -34 -50.5t-39 -10.5q-21 0 -43 11z" />
    <glyph glyph-name="a" unicode="a" horiz-adv-x="705" 
d="M658 419q5 -61 8 -101t4.5 -63.5t1.5 -35.5t-2 -18.5t-5 -11.5q-17 -32 -49 -41q-11 -3 -21 -3q-22 0 -42 13q-15 9 -23 25t-13 53.5t-11 112.5q-4 57 -7.5 98t-4.5 47q0 3 -1 3q-5 0 -20 -29q-92 -160 -220 -203q-31 -9 -59 -9q-52 0 -108.5 37.5t-85.5 140.5
q-9 35 -9 87v38.5t11 78.5q33 134 107 224q120 136 281 136h11q19 -1 34 -3t20 -3q1 -1 2 -1q2 0 4 2t4.5 11t6.5 25q10 50 19 72.5t23 33.5q26 21 52 21q27 0 53 -23q18 -16 22 -45q3 -17 3 -47q0 -24 -2 -57q-3 -65 -3 -140q0 -183 19 -425zM354 582q16 34 34 91.5
t29 106.5q9 37 9 50q0 4 -1 6q-5 4 -25 4q-21 0 -45 -3.5t-40 -9.5q-69 -30 -117 -114.5t-50 -179.5v-5q0 -71 26 -99q10 -14 19 -15h4q9 0 23 6q33 15 69.5 59t64.5 103z" />
    <glyph glyph-name="b" unicode="b" horiz-adv-x="831" 
d="M753 819q58 -122 58 -255q0 -2 -1 -70t-61 -160q-95 -126 -305 -145h-22q-35 0 -91.5 5t-90.5 14q-6 2 -10 2q-3 0 -6 -1.5t-10 -13.5q-17 -28 -47 -36q-10 -3 -20 -3q-19 0 -38 10q-18 10 -30 32q-4 7 -6.5 16.5t-5 30.5t-5.5 60.5t-7.5 105.5t-11.5 167
q-5 80 -15 193.5t-32 338.5q-6 59 -10.5 108t-5.5 65q-2 13 -2 21q0 6 1.5 13t9.5 18q29 39 64 39q20 0 41 -12q22 -12 32.5 -41t16.5 -94q10 -98 18.5 -189.5t14.5 -152t6 -65.5q1 0 5.5 5t11.5 17q18 30 61 73t78 68q72 47 140 47q25 0 49 -6q145 -35 226 -205zM639 463
q7 18 9.5 37.5t2.5 61.5q0 61 -9 104.5t-31 86.5q-42 81 -96 108q-24 12 -40 12q-1 0 -10 -1t-35 -19q-49 -30 -76 -64t-49 -91q-30 -77 -50 -168q-20 -87 -20 -130v-4q1 -15 5 -20t17 -9q23 -7 72 -14t81 -8q14 0 34 2t38 5q38 7 73 24t54 37q7 8 15.5 22.5t14.5 27.5z" />
    <glyph glyph-name="c" unicode="c" horiz-adv-x="947" 
d="M376 284q-177 34 -290 123q-119 106 -119 233q0 24 4 48q17 82 76 144q58 65 148 107q131 65 300 65q19 0 38 -1q38 -1 67.5 -3t36.5 -3l14 -4v42q0 73 41 100q20 12 40 12q10 0 20 -3q32 -8 48 -37q4 -8 6.5 -19.5t2.5 -38.5v-80q0 -65 -2.5 -97.5t-10.5 -46t-24 -23.5
q-19 -12 -41 -12q-8 0 -17 2q-33 6 -47 29q-8 21 -134 25h-25q-117 0 -208 -33q-102 -37 -139 -85.5t-37 -86.5q0 -28 14 -56q21 -40 79 -76.5t133 -57.5q23 -7 40.5 -10t43.5 -3.5t73 -0.5q45 0 70.5 0.5t42 3t32.5 7.5q163 43 222 141q33 47 72 47q23 0 47 -15
q29 -24 29 -60q0 -24 -13 -53q-66 -117 -242 -188q-56 -22 -111.5 -31t-135.5 -10q-28 -1 -52 -1q-63 0 -92 6z" />
    <glyph glyph-name="d" unicode="d" horiz-adv-x="736" 
d="M706 155q3 -16 3 -25q0 -2 -0.5 -8t-8.5 -22q-19 -36 -52 -46q-11 -4 -23 -4q-20 0 -41 13q-15 9 -23.5 24t-12.5 51.5t-8 109.5q-3 58 -6.5 100t-4.5 48q-1 5 -2 5h-2.5t-7.5 -9.5t-18 -29.5q-25 -42 -62.5 -82t-66.5 -55q-55 -26 -121 -26h-18q-47 1 -79 16t-68 53
q-91 89 -91 229q0 106 46 204t130 170q94 85 205 85q49 0 102 -17h2q4 0 6.5 7t4.5 30t2.5 66t1.5 112q0 62 0.5 97.5t1.5 53t4 26t7 17.5q18 34 49 44q10 3 21 3q21 0 42 -12q14 -8 21.5 -17.5t11 -34t4.5 -76t1 -143.5q0 -106 1.5 -179t7 -170t17.5 -274q5 -85 9.5 -156.5
t6.5 -95.5q1 -22 3.5 -45.5t4.5 -36.5zM417 565q7 21 15.5 55t16 69t11.5 60q4 18 4 24q0 3 -1 4q-4 4 -21 8.5t-37.5 8t-34.5 3.5h-6q-51 0 -116 -70q-93 -93 -97 -215q-1 -10 -1 -20q0 -72 45 -113q10 -11 16.5 -16t14 -6.5t19.5 -1.5q13 0 26.5 3t23.5 7q65 37 122 200z
" />
    <glyph glyph-name="e" unicode="e" horiz-adv-x="848" 
d="M917 448q23 -17 28 -46q1 -7 1 -14q0 -20 -11 -39q-12 -19 -36 -32.5t-75 -29.5q-179 -56 -346 -56q-45 0 -89 4q-185 20 -296 102q-58 43 -93 114q-9 16 -12.5 27t-4.5 24q-1 9 -1 23v20q0 66 24.5 120t85.5 115q118 120 317 186q54 17 118 32.5t88 16.5q7 0 10.5 5
t6.5 18q11 42 25.5 82.5t23.5 52.5q29 30 63 30q9 0 35.5 -6t39.5 -54q1 -3 1 -8q0 -19 -14 -64q-24 -74 -37 -156.5t-22 -205.5q-4 -81 -18.5 -112t-52.5 -42q-8 -2 -40.5 -5.5t-74.5 -5.5q-129 -8 -185 -13t-77 -11q-22 -6 -50.5 -15.5t-50.5 -18.5t-22 -11
q0 -6 20.5 -19.5t44.5 -24.5q106 -43 235 -43q154 0 340 62q36 13 59 13t42 -15zM213 681q-12 -11 -19 -19q-6 -7 -6 -8q2 0 20.5 4.5t44.5 11.5q45 12 104 18.5t160 10.5l72 3l6 74q2 31 3 53q1 11 1 16q0 6 -1 7t-3 1q-6 0 -25 -4.5t-50 -12.5t-60 -18q-155 -53 -247 -137
z" />
    <glyph glyph-name="f" unicode="f" horiz-adv-x="463" 
d="M163 -64q-20 9 -31 25.5t-19 56.5t-17 117q-38 297 -67 618.5t-30 456.5v9q0 182 121 188l11 1q29 0 66 -13q45 -16 116 -55q32 -18 55.5 -30t24.5 -12t24.5 -12t55.5 -30q60 -33 79.5 -52t20.5 -44v-7q0 -43 -35 -63q-19 -11 -41 -11q-21 0 -46 11q-23 12 -79 41.5
t-110 58t-70 37.5q-20 13 -28 13q-2 0 -3 -1q-5 -3 -5 -35q0 -19 6 -117t13 -192.5t10 -118.5v-5q1 -8 3 -12t8 -4h10q8 0 21 1q19 2 53 6q9 1 20 3q51 6 67 6.5t20 0.5q22 0 34 -4q14 -5 27 -17q9 -8 13.5 -14t5.5 -14t1 -24q0 -22 -2.5 -31t-11.5 -17q-14 -18 -45.5 -27
t-107.5 -18q-34 -4 -54 -7t-29.5 -5t-12 -4.5t-2.5 -6.5q0 -15 9 -95.5t21.5 -180t23 -179.5t15.5 -101q3 -14 3 -23v-4q-1 -9 -10 -26q-7 -14 -15 -22.5t-21 -14.5q-20 -11 -33 -11q-14 0 -33 10z" />
    <glyph glyph-name="g" unicode="g" horiz-adv-x="861" 
d="M853 -162q9 -69 11 -103q1 -12 1 -21q0 -19 -3 -32.5t-14 -25.5q-16 -19 -39 -27q-15 -5 -30 -5q-9 0 -19 2q-7 2 -22.5 9.5t-32.5 17.5q-73 44 -129 67t-130 39q-21 4 -41 6.5t-50 3.5t-83 1q-98 0 -144 -6t-83 -24q-12 -6 -24.5 -10t-18.5 -4q-17 0 -39 12t-32 27
q-11 19 -11 40q0 11 5.5 33t33.5 38q90 48 279 53q22 1 44 1q210 0 369 -70l41 -18l-3 35q-1 16 -6.5 69t-12.5 118q-11 115 -18 208.5t-11 198.5l-4 82l-47 -71q-86 -131 -145 -193.5t-125 -92.5q-22 -11 -37 -14t-43 -3q-26 0 -40 2.5t-25 9.5q-93 49 -132 227
q-6 25 -8 58t-2 104q0 54 1 81.5t3.5 44t7.5 34.5q42 139 156 217q43 29 80 40q35 10 84 10h9q139 -1 239 -73l24 -17l4 50q5 84 39 105q22 15 46 15q8 0 28 -5t37 -36q6 -10 8 -19q1 -7 1 -18v-18.5t-3 -56.5q-6 -94 -6 -206q0 -353 62 -890zM454 559q20 32 47 76.5
t48 81.5t21 41q0 5 -14.5 18.5t-33 27t-31.5 20.5q-30 14 -68 22q-30 6 -53 6h-11q-58 -6 -102 -50t-61 -113q-8 -41 -8 -98q0 -24 3 -82t22 -118q8 -22 17.5 -39.5t13.5 -17.5q1 0 7.5 3t16.5 8q64 30 186 214z" />
    <glyph glyph-name="h" unicode="h" horiz-adv-x="784" 
d="M705 22q-39 14 -50 47q-2 7 -6 31t-7 53q-12 93 -27.5 211.5t-29.5 216t-19 125.5q-4 24 -10 51.5t-11 45.5q-6 23 -17.5 49t-22.5 45.5t-17 22.5q-3 0 -14 -8.5t-26 -23.5q-78 -72 -144 -338q-43 -169 -53 -287q-2 -29 -4.5 -56t-3.5 -39q-10 -64 -40 -74t-41 -10
q-34 0 -64 36q-8 11 -15.5 55.5t-17.5 145.5q-3 37 -9 97t-12 115q-14 141 -20 219.5t-11 207.5q-4 75 -7.5 151t-6.5 118q-2 44 -2 58.5v20.5q0 13 1 20q2 10 6 20q24 47 70 47h2q48 -2 70 -51q4 -9 9.5 -90.5t14.5 -282.5q4 -78 7.5 -140.5t4.5 -79.5l4 -37l20 57
q36 102 81 170q33 46 81 85.5t87 51.5q20 6 40 6q99 0 170 -154q28 -54 47 -147.5t47 -312.5q14 -103 23 -171t14 -109.5t7 -63t2.5 -31.5t-0.5 -14q-8 -35 -31.5 -49t-44.5 -14q-11 0 -24 4z" />
    <glyph glyph-name="i" unicode="i" horiz-adv-x="266" 
d="M124 114q-16 7 -29 21t-18 28q-8 28 -15.5 136t-13.5 243t-6.5 202.5t-0.5 89.5q0 66 4 86q12 50 56 64q14 4 22.5 3.5t23.5 -5.5q11 -5 20.5 -12t14.5 -14q5 -5 7.5 -12.5t4 -24.5t2.5 -52t2 -95q2 -120 7 -219t16 -258l9 -121l-12 -22q-15 -26 -35 -34t-34 -8
q-13 0 -25 4zM79 1196q-51 24 -54 82q-1 6 -1 11q0 55 55 80q23 12 41 12h3q20 -1 42 -16q37 -25 37 -78q-1 -74 -61 -96q-17 -7 -27 -7h-3q-12 1 -32 12z" />
    <glyph glyph-name="j" unicode="j" horiz-adv-x="243" 
d="M139 -358q-45 23 -113.5 51.5t-132.5 51.5q-67 22 -168.5 36t-197.5 14q-48 0 -73.5 2t-37.5 9.5t-21 22.5q-12 21 -12 40q0 11 4 22q9 31 43 49q11 7 21 9.5t30.5 3t60.5 0.5q87 -1 170 -11q104 -14 171 -31t152 -52q30 -12 52 -20t24 -8t2 9q0 13 -5 46
q-21 124 -46 371q-14 131 -20 204.5t-7.5 133.5t-1.5 150v184l13 26q21 44 61 48h9q38 0 62 -32q4 -4 6 -9.5t3.5 -16.5t2 -33t0.5 -59.5v-96.5q0 -99 2 -163t8.5 -140t21.5 -211q12 -124 24.5 -215.5t30.5 -198.5q19 -107 19 -139q0 -6 -1 -9q-5 -30 -30 -49.5t-57 -19.5
q-4 0 -24 9t-45 22zM85 1196q-51 24 -54 82v10q0 55 54 81q23 12 42 12h3q19 -1 42 -16q36 -24 36 -75v-3q-1 -74 -61 -96q-17 -7 -27 -7h-3q-11 1 -32 12z" />
    <glyph glyph-name="k" unicode="k" horiz-adv-x="809" 
d="M801 69q-7 4 -16 11.5t-15 16.5q-34 43 -132 107t-195 106q-24 10 -59.5 23.5t-71.5 26.5t-59.5 21t-27.5 8h-1q-1 -2 -1 -18v-19q1 -34 4 -85q3 -64 3 -96q0 -31 -6.5 -44.5t-21.5 -24.5q-24 -19 -50 -19q-12 0 -24 4q-38 13 -52 57q-2 10 -5 57.5t-5 109.5
q-3 82 -6 119t-8 44q-7 14 -7 30q0 13 5 28q3 7 3 28t-4 70t-13.5 139t-25.5 234q-15 133 -23 218t-8 105v6q1 6 7 15.5t13 17.5q11 12 20 16t27 5q9 1 15 1q7 0 12 -1q10 -2 21 -9q13 -6 21 -18t15 -45.5t15.5 -105t21.5 -198.5q15 -132 25 -226.5t12 -107.5q1 -10 2 -17
t3 -9q2 0 30.5 12.5t66 29.5t66.5 31t33 16q0 2 -3.5 29.5t-9.5 68.5q-5 42 -9 87.5t-5 73.5q0 28 0.5 42.5t2.5 22t7 13.5q31 38 68 38q16 0 34 -8q23 -11 31.5 -30t11.5 -68q2 -26 6 -65.5t9 -74.5t8.5 -72t5.5 -59q1 -11 1 -21q0 -27 -6 -45q-9 -25 -41.5 -46.5
t-100.5 -54.5l-94 -45l89 -33q177 -64 313 -157q106 -70 146 -112.5t40 -85.5t-25.5 -59t-46.5 -16q-17 0 -36 7z" />
    <glyph glyph-name="l" unicode="l" horiz-adv-x="257" 
d="M100 16q-13 7 -20.5 17t-11.5 35t-6.5 78t-5.5 146q-13 336 -21 506t-19 319l-16 219l11 24q19 42 65 42h10q69 -2 74 -91q16 -189 27.5 -405.5t25.5 -600.5q3 -69 4.5 -114t2 -64.5t0.5 -29.5t-1 -17q0 -13 -2 -20t-5 -12q-17 -32 -38.5 -38.5t-31.5 -6.5q-22 0 -42 13z
" />
    <glyph glyph-name="m" unicode="m" horiz-adv-x="976" 
d="M848 73q-22 11 -33 32.5t-15 59.5q-7 62 -17.5 187t-21.5 262q-10 133 -19 226.5t-12 100.5q-4 0 -18 -34q-15 -36 -32 -87q-65 -188 -89 -426q-9 -87 -19.5 -121t-32.5 -47t-45 -13q-9 0 -19 2q-34 9 -52 40q-12 18 -57 370q-10 70 -18.5 117.5t-13.5 54.5q-2 0 -9 -19
q-8 -20 -17.5 -51.5t-17.5 -65.5q-18 -67 -25 -130t-8 -166q-1 -59 -2 -103t-3 -53q-3 -18 -19 -35.5t-35 -22.5q-9 -2 -18 -2q-28 0 -60 22q-23 16 -32 34t-11 57q-4 37 -21.5 175.5t-44.5 334.5q-5 42 -11 79.5t-10 52.5q-7 32 -7 54q0 21 6 33q16 32 47 40q11 2 21 2
q46 0 75 -53q3 -8 10.5 -42t15 -71.5t9.5 -55.5l5 13q5 13 13 34q18 51 33.5 81t33.5 49q38 42 81 42q23 0 47 -12q65 -29 103 -168q6 -22 11 -39t6 -21q2 0 10 20q9 22 21 58q94 289 207 289h5q26 -1 51.5 -14t41.5 -35q22 -29 35.5 -75.5t24.5 -148t25 -293.5
q7 -91 15 -186t14 -150q4 -44 6.5 -70t2.5 -39t-1.5 -20.5t-4.5 -14.5q-15 -33 -36 -40t-33 -7q-18 0 -36 9z" />
    <glyph glyph-name="n" unicode="n" horiz-adv-x="738" 
d="M613 130q-12 5 -24.5 16t-19.5 23q-5 14 -6 89q-2 101 -12 222t-25 207q-7 42 -22.5 92t-31.5 87q-7 15 -18.5 31t-23 28t-16.5 12q-6 0 -21 -17.5t-31.5 -41t-26.5 -42.5q-36 -72 -50.5 -163t-14.5 -245v-11q0 -79 -2 -114.5t-10.5 -48t-28.5 -23.5q-1 -1 -3 -2
q-26 -16 -50 -16q-9 0 -18 2q-33 7 -51 41q-3 7 -10 35.5t-13 64.5q-7 37 -16 82.5t-16 78.5q-7 34 -18 95t-21 120q-10 60 -20 115t-15 80l-11 55l11 25q23 45 67.5 45.5t70.5 -43.5q13 -26 38 -169l4 -21l12 31q21 59 58 114t78 90q30 26 54 37t51 11h5q59 0 129 -70
q24 -24 37 -42t27 -48q19 -41 36.5 -91t27.5 -93q14 -66 26.5 -181t17 -195t4.5 -117q0 -36 -3 -57q-4 -26 -12.5 -41.5t-25.5 -27.5q-13 -9 -26 -11t-19 -2q-12 0 -22 4z" />
    <glyph glyph-name="o" unicode="o" horiz-adv-x="742" 
d="M756 632v-13q0 -71 -53 -144t-153 -124q-62 -30 -152 -45q-61 -10 -116 -10q-25 0 -49 2q-139 15 -204 110q-44 73 -44 167q0 43 19.5 143t132.5 229q115 126 184 131q28 0 50.5 -16t29.5 -42q2 -8 8 -15.5t22 -19.5t47 -34q31 -21 62.5 -42t49.5 -32q43 -28 68.5 -51
t45.5 -54q45 -68 52 -140zM585 580q13 19 14 32v3q0 14 -7 35q-8 27 -37 54t-100 73q-39 27 -74.5 51t-50.5 36l-34 25l-32 -35q-86 -92 -112 -202q-8 -34 -8 -78t7 -64q7 -16 24 -29.5t37 -20.5q16 -4 55 -4t80.5 3t63.5 9q121 34 174 112z" />
    <glyph glyph-name="p" unicode="p" horiz-adv-x="610" 
d="M569 699q11 -46 11 -94q0 -16 -3 -57t-27 -88q-32 -62 -100 -113t-148 -73q-15 -4 -26 -8t-13 -5q-1 -2 -1 -13q0 -5 0.5 -21t4.5 -51q16 -148 16 -227q0 -26 -2 -45q-3 -46 -13.5 -69t-34.5 -34q-19 -10 -32 -10h-3q-13 0 -30 8q-20 8 -29 19.5t-12 44t-4 102.5
q-2 93 -13.5 204.5t-43.5 346.5q-19 137 -46 298.5t-47 253.5q-5 25 -5 41q0 4 1 14.5t14 28.5q23 36 71 36q6 0 12 -1q90 -3 216 -115q21 -19 47 -41t44 -38q150 -131 196 -294zM415 542q7 20 7 50q0 10 -1.5 38t-13.5 62q-11 28 -35 65.5t-49 65.5q-15 17 -42 41.5t-56 49
t-49 39.5q-17 13 -20 13q-1 0 -1 -1q0 -5 5.5 -36t12.5 -73q8 -44 19.5 -116t20.5 -138q3 -28 6 -51q6 -40 9.5 -65.5t6 -39.5t5 -19.5t5.5 -5.5t8 2q2 1 6 2q8 2 23 7.5t29 12.5q32 15 62.5 43.5t41.5 53.5z" />
    <glyph glyph-name="q" unicode="q" horiz-adv-x="649" 
d="M597 283q15 -156 24 -272q6 -94 6 -122v-10q-13 -40 -43 -55q-14 -7 -30 -7q-17 0 -36 9t-29 24t-15.5 55t-12.5 125q-5 64 -10.5 132.5t-9.5 109.5q-3 39 -6.5 89.5t-4.5 87.5l-4 85l-18 -32q-85 -149 -167 -194q-28 -14 -62 -14q-3 0 -22 0.5t-48 16.5
q-100 51 -118 242q-2 24 -2 49q0 84 28 182.5t89 168.5q28 31 66.5 56.5t75.5 38.5q34 11 79 12h9q38 0 64 -8l21 -9l9 36q4 16 9.5 30t9.5 20q26 29 63.5 28.5t61.5 -31.5l12 -16l1 -368q0 -220 2.5 -315t7.5 -144zM290 617q12 27 33 85t39 112.5t18 62.5q0 11 -18 19
q-16 8 -34 8h-4q-77 -10 -125.5 -92.5t-50.5 -204.5q1 -57 11 -104.5t21 -47.5q2 0 8.5 6.5t14.5 15.5q50 61 87 140z" />
    <glyph glyph-name="r" unicode="r" horiz-adv-x="537" 
d="M124 129q-7 5 -14 11.5t-12 13.5q-3 4 -5 9.5t-4.5 18.5t-5.5 39.5t-7.5 73.5t-11.5 121q-34 352 -79 475q-12 35 -12 55v6q1 21 20 40q26 25 55 25q24 0 50 -18q31 -28 55 -120l12 -47l18 30q118 197 295 197q98 -1 121 -74q4 -13 3.5 -22t-6.5 -23q-22 -54 -71 -54
q-15 0 -34 6q-20 7 -35 7q-6 0 -11 -1q-49 -11 -98 -74.5t-75 -148.5q-15 -47 -21 -115t-8 -210q-1 -60 -2 -97t-2.5 -57t-3.5 -28.5t-5 -13.5q-18 -25 -38.5 -30t-31.5 -5q-18 0 -36 10z" />
    <glyph glyph-name="s" unicode="s" horiz-adv-x="766" 
d="M238 130q-81 12 -119 53t-38 88q0 13 2 26q9 54 66 104q73 66 115 66q32 0 54.5 -22t22.5 -53q0 -42 -52 -80l-35 -26l53 3q98 6 190 53t126 106q12 24 12 51q0 10 -2 21q-5 39 -28 61q-19 17 -43 21t-59 4q-20 0 -47 -1q-137 -4 -299 -32q-33 -6 -62.5 -9.5t-40.5 -3.5
q-24 0 -48 11.5t-37 30.5q-7 10 -8.5 19t-1.5 19v12q1 20 8 36t28.5 36.5t64.5 56.5q103 85 221 164.5t216 129.5q33 17 51 25t29.5 10.5t25.5 2.5q17 0 27 -2.5t18 -8.5q26 -20 30 -39t4 -28q0 -19 -9 -36q-5 -10 -24.5 -22t-69.5 -37q-36 -18 -72 -38t-56 -32
q-20 -13 -49 -32.5t-57.5 -39t-47 -33t-18.5 -14.5q1 0 11 0.5t24 2.5q16 2 55.5 4t83.5 4q42 1 69 1h23q29 -1 49 -6q137 -34 181 -156q18 -53 18 -105q0 -18 -2 -35q-9 -56 -47.5 -113.5t-95.5 -99.5q-89 -61 -192 -90.5t-177 -29.5q-21 0 -41 2z" />
    <glyph glyph-name="t" unicode="t" horiz-adv-x="411" 
d="M263 94q-15 6 -28.5 20t-18.5 29q-4 14 -11.5 102t-14.5 215q-3 39 -5.5 121t-4.5 169l-5 145t-3 61q0 1 -5 1q-4 0 -12 -1q-16 -1 -39 -3q-54 -6 -78 -7.5t-36 -1.5h-10q-13 2 -22 7q-37 19 -41 63v8q0 37 36 63q24 16 168 28l46 4v63q2 136 19 179q16 31 39 38t34 7
q20 0 39 -12q29 -19 34 -37.5t5 -33.5q0 -21 -6 -51q-3 -14 -4.5 -39t-1.5 -49v-56l43 3q18 2 33 2q18 0 30 -3q22 -4 37 -18q28 -28 28 -57q0 -24 -20 -50q-13 -16 -33 -22.5t-67 -9.5l-51 -3v-124q0 -258 21 -531q5 -59 8 -103.5t3 -53.5q-4 -36 -30 -51.5t-47 -15.5
q-14 0 -29 5z" />
    <glyph glyph-name="u" unicode="u" horiz-adv-x="692" 
d="M551 132q-8 9 -15.5 19.5t-10.5 19.5q-2 9 -7.5 46t-11.5 83q-5 47 -10 85t-6 48l-3 24l-25 -46q-75 -134 -170 -167q-25 -7 -48 -7q-50 0 -93 30q-65 43 -96 138q-19 55 -25 126.5t-6 227.5q0 104 1.5 158t7.5 79t17 41q13 19 32 27t34 8q6 0 12 -1q19 -4 36.5 -21
t24.5 -38q4 -13 3.5 -27.5t-6.5 -44.5q-4 -21 -5.5 -43t-1.5 -61t1 -110q2 -119 6.5 -173.5t16.5 -94.5q8 -26 20.5 -43.5t23.5 -17.5q7 0 21.5 14.5t30.5 35.5t27 43q35 64 61 172t53 299q6 45 13 79.5t11 42.5q19 33 40 36.5t27 3.5q29 0 52 -22q10 -10 15.5 -19.5
t8.5 -27t4.5 -52t2.5 -94.5q8 -287 53 -621q7 -48 8.5 -67.5t1.5 -29.5t-1 -17q-2 -13 -9 -23q-21 -36 -69 -36q-17 0 -25.5 3.5t-21.5 14.5z" />
    <glyph glyph-name="v" unicode="v" horiz-adv-x="541" 
d="M190 123q-20 9 -32 24.5t-22.5 48t-23.5 93.5q-10 44 -25 105t-27 111q-21 82 -43.5 179.5t-38.5 174t-16 87.5q0 34 32 61q9 8 18 11t27 3q19 0 27.5 -3.5t21.5 -15.5q9 -8 16 -18t10 -17q2 -9 12 -50.5t22 -97.5q17 -81 36 -162t33 -135t16 -55q1 3 20 56.5t47 133.5
q160 467 203 513q33 34 69 34q11 0 23 -3q49 -15 54 -74q0 -18 -5 -31t-17 -26q-16 -21 -69.5 -160.5t-115.5 -319t-105 -320.5q-12 -41 -24 -73t-18 -42q-19 -27 -40 -33.5t-32 -6.5q-17 0 -33 8zM190 123q-20 9 -32 24.5t-22.5 48t-23.5 93.5q-10 44 -25 105t-27 111
q-21 82 -43.5 179.5t-38.5 174t-16 87.5q0 34 32 61q9 8 18 11t27 3q19 0 27.5 -3.5t21.5 -15.5q9 -8 16 -18t10 -17q2 -9 12 -50.5t22 -97.5q17 -81 36 -162t33 -135t16 -55q1 3 20 56.5t47 133.5q160 467 203 513q33 34 69 34q11 0 23 -3q49 -15 54 -74q0 -18 -5 -31
t-17 -26q-16 -21 -69.5 -160.5t-115.5 -319t-105 -320.5q-12 -41 -24 -73t-18 -42q-19 -27 -40 -33.5t-32 -6.5q-17 0 -33 8z" />
    <glyph glyph-name="w" unicode="w" horiz-adv-x="999" 
d="M801 30q-55 26 -106 95q-24 33 -74.5 116.5t-102.5 174t-79 143.5q-10 21 -17.5 34t-8.5 13q-1 -2 -5.5 -21t-10.5 -46q-18 -86 -42 -177.5t-39 -130.5q-7 -18 -16 -36t-16 -28q-31 -41 -75 -41h-2q-45 0 -74 43q-43 85 -121 543q-19 111 -27 168.5t-8 85.5v6q0 27 8 39
q26 42 70 41.5t67 -43.5q4 -10 7 -21t3 -20q1 -15 12 -86t26 -160.5t27.5 -161t17.5 -87.5q2 -6 3 -6q2 1 5 12q2 8 12 57t24 115q13 67 21 105.5t13 58.5t10 29.5t11 17.5q27 34 68 34h2q42 -1 75 -38q8 -10 34 -57.5t57 -110.5q34 -67 88 -164t102.5 -179.5t65.5 -103.5
q2 -3 4 -3q1 0 2 5.5t1 19v37t-1 59.5q-3 209 -48 473q-13 77 -26 164.5t-17 116.5v8q0 43 41 65q17 9 33 9q21 0 42 -14q22 -12 34.5 -44.5t20.5 -101.5q5 -36 13 -89.5t16 -99.5q50 -294 50 -536v-19q0 -114 -6 -162t-24 -72q-33 -43 -81 -43q-27 0 -59 14zM801 30
q-55 26 -106 95q-24 33 -74.5 116.5t-102.5 174t-79 143.5q-10 21 -17.5 34t-8.5 13q-1 -2 -5.5 -21t-10.5 -46q-18 -86 -42 -177.5t-39 -130.5q-7 -18 -16 -36t-16 -28q-31 -41 -75 -41h-2q-45 0 -74 43q-43 85 -121 543q-19 111 -27 168.5t-8 85.5v6q0 27 8 39
q26 42 70 41.5t67 -43.5q4 -10 7 -21t3 -20q1 -15 12 -86t26 -160.5t27.5 -161t17.5 -87.5q2 -6 3 -6q2 1 5 12q2 8 12 57t24 115q13 67 21 105.5t13 58.5t10 29.5t11 17.5q27 34 68 34h2q42 -1 75 -38q8 -10 34 -57.5t57 -110.5q34 -67 88 -164t102.5 -179.5t65.5 -103.5
q2 -3 4 -3q1 0 2 5.5t1 19v37t-1 59.5q-3 209 -48 473q-13 77 -26 164.5t-17 116.5v8q0 43 41 65q17 9 33 9q21 0 42 -14q22 -12 34.5 -44.5t20.5 -101.5q5 -36 13 -89.5t16 -99.5q50 -294 50 -536v-19q0 -114 -6 -162t-24 -72q-33 -43 -81 -43q-27 0 -59 14z" />
    <glyph glyph-name="x" unicode="x" horiz-adv-x="653" 
d="M52 98q-34 27 -34 66q0 19 48 127t122 258l61 123l-25 32q-163 209 -250 301q-43 42 -43 77q0 25 20 46q23 27 56 27q11 0 23 -3q48 -14 213 -219q36 -45 61 -75t26 -30q4 5 25 41.5t50 88t55.5 100t40.5 75.5q20 38 35 65t18 31q9 10 29.5 19t35.5 9q41 0 69 -38
q11 -19 11 -39q0 -26 -19 -53q-6 -9 -21 -34.5t-31 -55.5q-16 -31 -43.5 -81t-53.5 -95t-48.5 -84.5t-31.5 -55.5l-19 -35l36 -54q68 -102 161 -277q19 -36 36.5 -66t23.5 -39q25 -33 25 -67q0 -6 -1 -13q-7 -32 -31.5 -48.5t-49.5 -16.5q-6 0 -13 1q-23 3 -43.5 27
t-51.5 85q-84 160 -138 250l-34 57l-41 -82q-18 -36 -40 -82.5t-38 -82.5q-32 -71 -49.5 -108t-27.5 -51.5t-19 -19.5q-19 -11 -43 -11t-42 10zM52 98q-34 27 -34 66q0 19 48 127t122 258l61 123l-25 32q-163 209 -250 301q-43 42 -43 77q0 25 20 46q23 27 56 27q11 0 23 -3
q48 -14 213 -219q36 -45 61 -75t26 -30q4 5 25 41.5t50 88t55.5 100t40.5 75.5q20 38 35 65t18 31q9 10 29.5 19t35.5 9q41 0 69 -38q11 -19 11 -39q0 -26 -19 -53q-6 -9 -21 -34.5t-31 -55.5q-16 -31 -43.5 -81t-53.5 -95t-48.5 -84.5t-31.5 -55.5l-19 -35l36 -54
q68 -102 161 -277q19 -36 36.5 -66t23.5 -39q25 -33 25 -67q0 -6 -1 -13q-7 -32 -31.5 -48.5t-49.5 -16.5q-6 0 -13 1q-23 3 -43.5 27t-51.5 85q-84 160 -138 250l-34 57l-41 -82q-18 -36 -40 -82.5t-38 -82.5q-32 -71 -49.5 -108t-27.5 -51.5t-19 -19.5q-19 -11 -43 -11
t-42 10z" />
    <glyph glyph-name="y" unicode="y" horiz-adv-x="690" 
d="M546 -261q-44 20 -109 32t-193 24q-44 4 -142.5 5.5t-192.5 1t-124 -3.5q-15 -2 -21 -2h-9q-5 0 -9 1q-6 2 -14 7q-35 24 -35 71t50 72q9 4 17.5 7t24.5 4.5t48 2t88 1.5h53q208 0 383 -21q60 -7 108 -15.5t64 -13.5q2 -1 4 -1q1 0 2 2v3q0 3 -1 10q-6 42 -21 163.5
t-28.5 241t-16.5 155.5v1q-1 0 -4 -11q-3 -14 -9 -37q-31 -147 -89 -202q-46 -44 -97 -44h-2q-51 1 -82 47q-17 24 -32.5 81t-40.5 181q-29 148 -47 225t-51 189q-22 77 -29.5 109.5t-7.5 44.5v4q10 52 37 59.5t38 7.5q31 0 59 -27q22 -31 68 -200.5t82 -355.5
q11 -55 19.5 -90.5t10.5 -35.5q8 10 36 199q7 47 17.5 113t19.5 120q13 80 22 145.5t17 138.5q12 79 77 84q46 -1 68 -36q5 -8 9 -21.5t7.5 -40.5t8 -76.5t11.5 -130.5q9 -118 22 -246t41 -391q5 -44 13 -109t15 -122q13 -96 20 -152t7 -72.5v-20.5q0 -23 -5 -35
q-6 -14 -18 -27q-26 -31 -66 -31q-31 0 -71 18zM546 -261q-44 20 -109 32t-193 24q-44 4 -142.5 5.5t-192.5 1t-124 -3.5q-15 -2 -21 -2h-9q-5 0 -9 1q-6 2 -14 7q-35 24 -35 71t50 72q9 4 17.5 7t24.5 4.5t48 2t88 1.5h53q208 0 383 -21q60 -7 108 -15.5t64 -13.5
q2 -1 4 -1q1 0 2 2v3q0 3 -1 10q-6 42 -21 163.5t-28.5 241t-16.5 155.5v1q-1 0 -4 -11q-3 -14 -9 -37q-31 -147 -89 -202q-46 -44 -97 -44h-2q-51 1 -82 47q-17 24 -32.5 81t-40.5 181q-29 148 -47 225t-51 189q-22 77 -29.5 109.5t-7.5 44.5v4q10 52 37 59.5t38 7.5
q31 0 59 -27q22 -31 68 -200.5t82 -355.5q11 -55 19.5 -90.5t10.5 -35.5q8 10 36 199q7 47 17.5 113t19.5 120q13 80 22 145.5t17 138.5q12 79 77 84q46 -1 68 -36q5 -8 9 -21.5t7.5 -40.5t8 -76.5t11.5 -130.5q9 -118 22 -246t41 -391q5 -44 13 -109t15 -122
q13 -96 20 -152t7 -72.5v-20.5q0 -23 -5 -35q-6 -14 -18 -27q-26 -31 -66 -31q-31 0 -71 18z" />
    <glyph glyph-name="z" unicode="z" horiz-adv-x="908" 
d="M833 45q-148 13 -273 27q-41 5 -110 11.5t-133 13.5q-65 6 -102 8.5t-62 2.5t-55 -3q-31 -2 -54 -2t-37 2q-28 4 -44 23q-27 28 -27 59q0 28 21 58q8 10 68 71t144 144q85 84 157 158t99 104q50 57 109.5 126.5t102.5 121.5t44 55h-3q-6 0 -28 -2q-28 -4 -70 -9
q-43 -6 -100.5 -13.5t-102.5 -13.5t-75 -10.5t-32 -5.5q0 -1 4 -16t11 -37q21 -66 21 -108q0 -12 -2 -22q-11 -42 -36 -50.5t-37 -8.5q-26 0 -50 18q-11 8 -17 22t-15 48q-6 24 -16 57t-18 61q-21 65 -21 104q0 29 11 43q22 33 84 39q95 12 229.5 30t240.5 33
q85 12 112.5 14.5t38.5 2.5q22 0 34 -4q18 -7 34 -25q26 -22 26 -58q0 -60 -76 -157q-77 -102 -209 -250.5t-258 -276.5l-162 -163l23 -3q11 -1 49.5 -5t86.5 -9q214 -20 328 -33q27 -4 50 -6t32 -2h19l-12 59q-11 49 -11.5 62t-0.5 15q0 19 6 30q19 41 66 42q13 1 21 0.5
t14 -4t15 -11.5q12 -10 19 -19.5t12 -29t14 -59.5q19 -94 23.5 -125t4.5 -46q0 -12 -2 -18q-8 -28 -33.5 -45.5t-52.5 -17.5h-3q-6 0 -15.5 1t-18.5 2zM833 45q-148 13 -273 27q-41 5 -110 11.5t-133 13.5q-65 6 -102 8.5t-62 2.5t-55 -3q-31 -2 -54 -2t-37 2q-28 4 -44 23
q-27 28 -27 59q0 28 21 58q8 10 68 71t144 144q85 84 157 158t99 104q50 57 109.5 126.5t102.5 121.5t44 55h-3q-6 0 -28 -2q-28 -4 -70 -9q-43 -6 -100.5 -13.5t-102.5 -13.5t-75 -10.5t-32 -5.5q0 -1 4 -16t11 -37q21 -66 21 -108q0 -12 -2 -22q-11 -42 -36 -50.5
t-37 -8.5q-26 0 -50 18q-11 8 -17 22t-15 48q-6 24 -16 57t-18 61q-21 65 -21 104q0 29 11 43q22 33 84 39q95 12 229.5 30t240.5 33q85 12 112.5 14.5t38.5 2.5q22 0 34 -4q18 -7 34 -25q26 -22 26 -58q0 -60 -76 -157q-77 -102 -209 -250.5t-258 -276.5l-162 -163l23 -3
q11 -1 49.5 -5t86.5 -9q214 -20 328 -33q27 -4 50 -6t32 -2h19l-12 59q-11 49 -11.5 62t-0.5 15q0 19 6 30q19 41 66 42q13 1 21 0.5t14 -4t15 -11.5q12 -10 19 -19.5t12 -29t14 -59.5q19 -94 23.5 -125t4.5 -46q0 -12 -2 -18q-8 -28 -33.5 -45.5t-52.5 -17.5h-3
q-6 0 -15.5 1t-18.5 2z" />
    <glyph glyph-name="braceleft" unicode="{" horiz-adv-x="619" 
d="M338 -20q-102 31 -126 162q-4 26 -4 74q0 24 1 53q3 89 14 162q4 30 7 57t3 38v7q0 22 -11 28q-10 6 -42 6h-29q-34 0 -52 5q-20 7 -33 27q-16 21 -16 43q0 44 60 90q88 70 117 127q16 31 16 85q0 35 -7 81q-7 55 -7.5 88t-0.5 41q0 45 5 71q21 87 93 124q15 8 29 10
t44 2q29 0 43 -2.5t30 -10.5q49 -25 49 -64q0 -18 -10 -38q-20 -44 -72 -44q-7 0 -15 1q-13 1 -20 1h-7q-7 -1 -8 -6q-3 -8 -3 -27v-29q0 -20 1 -43q2 -35 6 -62q8 -56 8 -101q0 -44 -8 -78q-8 -32 -26 -69t-38 -64l-22 -28l21 -15q29 -21 46 -63.5t17 -93.5q0 -14 -4 -53
t-10 -81q-8 -57 -10 -86t-2 -52q0 -15 1 -31q1 -30 2.5 -53t3.5 -27q5 -10 15 -10q3 0 7 1q16 4 36 23q33 35 66 35q18 0 35 -11q38 -26 38 -65q0 -13 -4 -27q-17 -56 -90 -93q-19 -10 -35 -13.5t-43 -4.5q-20 0 -36.5 0.5t-22.5 2.5z" />
    <glyph glyph-name="bar" unicode="|" horiz-adv-x="266" 
d="M102 -3q-24 12 -34 33q-3 6 -5 14t-3.5 25t-2.5 50.5t-2 90t-2 143.5q-3 319 -3 591t4 335q1 24 3 37t5.5 20.5t10.5 15.5q15 17 32.5 24.5t31.5 7.5q5 0 10 -1q14 -4 30.5 -15.5t23.5 -24.5q5 -25 8 -598q1 -250 2.5 -430.5t2.5 -208.5q2 -22 2 -34t-2.5 -20.5
t-8.5 -18.5q-26 -46 -65 -46q-17 0 -38 10z" />
    <glyph glyph-name="braceright" unicode="}" horiz-adv-x="619" 
d="M180 -19q-55 14 -92 51.5t-38 80.5q2 41 27 59t47 18q14 0 28 -5q7 -3 17 -11t20 -18q20 -19 30 -21.5t13 -2.5q10 0 15 10q2 4 3.5 26.5t2.5 53.5q1 16 1 31q0 23 -2 45q-2 36 -10 93q-6 42 -10 81t-4 53q0 51 17 93.5t46 63.5l21 15l-22 28q-20 27 -38 64t-26 69
q-7 34 -7 78q0 45 7 101q3 27 5 56t2 49v20q0 28 -3 36q-1 5 -6 5.5t-9 0.5q-7 0 -20 -1q-8 -1 -15 -1q-53 0 -72 44q-10 20 -10 38q0 39 49 64q16 8 29.5 10.5t43.5 2.5t44 -2t29 -10q72 -37 93 -124q5 -26 5 -71v-16q-1 -58 -8 -113q-7 -46 -7 -81q0 -54 16 -85
q28 -57 117 -127q60 -46 60 -90q0 -22 -16 -43q-13 -20 -32 -26t-53 -6h-29q-32 0 -42 -6q-11 -6 -11 -28v-7q0 -11 3 -38t7 -57q11 -73 13 -132t2 -83q0 -48 -4 -74q-21 -113 -97 -150q-15 -8 -30 -11t-39 -4q-18 0 -35 1t-26 3z" />
    <glyph glyph-name="asciitilde" unicode="~" horiz-adv-x="920" 
d="M92 550q-7 4 -15 10.5t-13 12.5q-8 12 -11 27.5t-3 24.5t2 16q14 46 78.5 94.5t133.5 67.5q21 6 42 6q17 0 34 -4q37 -9 109 -44q93 -45 132 -51q22 -5 38 -5t27 4q24 9 62 47q24 23 37.5 34.5t24.5 14.5t25 3q48 -2 61.5 -29t13.5 -44q0 -23 -15 -49q-21 -31 -56 -62.5
t-66 -47.5q-56 -29 -118 -29q-18 0 -37 3q-41 5 -80.5 18.5t-106.5 46.5q-32 15 -56.5 25.5t-28.5 10.5q-20 0 -57.5 -24.5t-54.5 -49.5t-36.5 -30.5t-29.5 -5.5q-18 0 -36 9z" />
    <glyph glyph-name="guillemotleft" unicode="&#xab;" horiz-adv-x="841" 
d="M354 111q-23 18 -92 103t-133 175q-48 68 -63.5 99t-15.5 53q0 11 3 21q9 31 42 81q14 23 37.5 58t44.5 65q22 31 60 86.5t73 108.5q44 66 66.5 96t36.5 37.5t35 7.5q33 0 54 -23t21 -52v-8q0 -12 -9.5 -31.5t-35.5 -59t-76 -112.5q-33 -48 -70 -102t-61 -90l-56 -82
l48 -70q36 -53 74.5 -102t92.5 -112q37 -41 42 -56.5t5 -23.5q0 -16 -10 -33q-5 -10 -13 -19.5t-15 -14.5q-19 -10 -43 -10t-42 10zM664 189q-8 4 -21 15.5t-37.5 38t-67.5 75.5q-36 40 -68.5 76.5t-47.5 52.5q-48 46 -48 87v6q4 43 69 140q16 26 48.5 80.5t65.5 113.5
q34 59 54.5 94.5t32 53.5t19 25.5t15.5 12.5q20 11 39 11q20 0 39 -13q35 -23 35 -69v-3q-1 -12 -15 -41.5t-49 -91.5q-45 -80 -90 -156t-75 -123l-17 -27l67 -75q28 -32 57 -64.5t45 -50.5q15 -17 28 -33.5t18 -24.5q11 -19 11 -39q0 -9 -2 -18q-7 -30 -32 -47
q-14 -8 -27.5 -9t-18.5 -1q-15 0 -27 4z" />
    <glyph glyph-name="guillemotright" unicode="&#xbb;" horiz-adv-x="840" 
d="M401 111q-7 5 -15 14.5t-13 19.5q-9 17 -9 33q0 8 2 16q8 23 45 64q54 63 92 112t74 102l48 70l-55 82q-25 36 -62 90t-70 102q-50 73 -76 112.5t-35 59t-10 31.5v6q0 30 20 52q22 25 55 25q21 0 35 -7.5t36.5 -37.5t66.5 -96q36 -53 73.5 -108.5t59.5 -86.5
q22 -30 45 -65t38 -58q32 -50 38 -70.5t6 -31.5q0 -22 -12 -47q-18 -37 -67 -105q-65 -92 -133.5 -176.5t-91.5 -101.5q-16 -10 -39 -10h-4q-24 0 -42 10zM103 194q-25 19 -29.5 38t-4.5 27q0 21 11 40q5 8 18 24.5t28 33.5q16 18 45 50.5t58 64.5l66 75l-17 27
q-30 47 -74.5 123t-89.5 156q-36 62 -50 91.5t-14 41.5v5q0 44 34 67q19 13 40 13q18 0 38 -11q8 -5 15.5 -12.5t19.5 -25.5t32.5 -53.5t53.5 -94.5t65.5 -113.5t49.5 -80.5q65 -97 66.5 -120.5t1.5 -26.5q0 -41 -47 -86q-15 -16 -49 -53t-70 -79q-52 -59 -78 -86.5t-41 -35
t-33 -7.5q-8 -1 -15 -1q-6 0 -11 1q-10 2 -19 8z" />
    <glyph glyph-name="gravecomb" unicode="&#x300;" horiz-adv-x="393" 
d="M225 1118q-60 29 -128 177q-36 76 -41.5 103t-5.5 39q0 22 10 37q26 40 65 40q15 0 32 -6q18 -6 28 -20t21 -46q20 -56 47.5 -108.5t51.5 -79.5q38 -42 38 -74q0 -6 -1 -12q-10 -40 -34 -50.5t-40 -10.5q-21 0 -43 11z" />
    <glyph glyph-name="acutecomb" unicode="&#x301;" horiz-adv-x="393" 
d="M91 1115q-25 13 -33 32t-8 33q0 12 4 24q3 8 12.5 22t21.5 28q23 27 51 79.5t48 108.5q11 32 21 45.5t27 20.5q17 6 33 6q38 0 65 -40q10 -15 10 -37q0 -15 -5 -34q-11 -46 -57 -137q-55 -112 -102 -142q-21 -13 -35 -14.5t-19 -1.5q-18 0 -34 7z" />
    <glyph glyph-name="uni0302" unicode="&#x302;" horiz-adv-x="577" 
d="M420 1112q-18 9 -33 31t-41 76q-16 34 -31.5 63.5t-23.5 40.5q-10 15 -13.5 17.5t-5.5 2.5q-3 0 -5 -2q-11 -9 -26 -42t-28 -77q-25 -91 -81 -91q-9 0 -20 3q-26 6 -44 29t-18 50q0 24 17 72t40.5 94t44.5 71q58 65 120 65q26 0 52 -12q42 -18 79 -66.5t83 -145.5
q22 -45 31.5 -70.5t9 -41t-8.5 -31.5q-4 -7 -10.5 -15t-12.5 -13q-15 -9 -30.5 -11t-21.5 -2q-14 0 -23 5z" />
    <glyph glyph-name="tildecomb" unicode="&#x303;" horiz-adv-x="804" 
d="M88 1193q-25 16 -31.5 37t-6.5 35q0 15 5 31q5 12 25 32.5t45 40.5t45 30t36 13.5t46 4.5q13 1 25 1q28 0 49 -5q30 -8 70 -31q71 -42 116 -42q7 0 13 1q28 3 44.5 13t33.5 35q33 50 77 50q48 0 61 -28t13 -46q0 -26 -15 -54q-16 -27 -42 -54.5t-48 -40.5
q-9 -5 -27.5 -12t-37.5 -12q-35 -9 -70 -9q-89 0 -183 54q-24 14 -38 19t-29 5q-11 0 -18.5 -2t-17 -9t-26.5 -23q-16 -15 -30.5 -26t-20.5 -13q-14 -5 -27 -5q-18 0 -36 10z" />
    <glyph glyph-name="uni0304" unicode="&#x304;" horiz-adv-x="754" 
d="M99 1236q-48 23 -48.5 46.5t-0.5 24.5q0 46 46 69q6 4 19 6t41.5 3t81.5 2t140 3h19q98 1 133 1h47q36 0 55 -2q26 -3 37 -10t19 -20l2 -2q13 -19 13.5 -32t0.5 -15q0 -21 -11 -37t-23 -24t-38 -10.5t-81 -4.5q-84 -2 -160 -2.5t-121 -0.5h-83q-77 2 -88 5z" />
    <glyph glyph-name="uni0307" unicode="&#x307;" horiz-adv-x="316" 
d="M132 1209q-43 14 -62.5 41.5t-19.5 55.5q0 8 1 16q4 22 19.5 43.5t33.5 31.5q39 19 70 19q38 0 64 -28q28 -32 28 -67q0 -30 -21 -63q-20 -29 -46.5 -40.5t-45.5 -11.5q-11 0 -21 3z" />
    <glyph glyph-name="quoteleft" unicode="&#x2018;" horiz-adv-x="234" 
d="M130 973q-21 7 -45.5 34.5t-43.5 64.5q-41 89 -41 173q0 31 6 62q16 74 48.5 110t66.5 36q7 0 14 -1q25 -7 44 -30.5t19 -47.5q0 -5 -6 -19.5t-14 -31.5q-13 -25 -16 -37.5t-3 -30.5v-10q0 -46 12 -78t45 -72q18 -23 18 -50q0 -6 -1 -12q-4 -33 -32 -53q-13 -8 -26 -9.5
t-18 -1.5q-14 0 -27 4z" />
    <glyph glyph-name="quoteright" unicode="&#x2019;" horiz-adv-x="233" 
d="M86 974q-22 11 -36 31.5t-14 42.5q0 4 5.5 19t14.5 31q13 25 16 38t3 31v10q0 46 -12 78t-45 71q-18 25 -18 52v6q2 31 26 52q23 18 48 18q18 0 38 -10q45 -24 81 -95q41 -86 41 -173l-1 -19q-5 -96 -58 -158q-29 -31 -61 -31q-14 0 -28 6z" />
    <glyph glyph-name="quotesinglbase" unicode="&#x201a;" horiz-adv-x="233" 
d="M86 -137q-22 10 -36 31t-14 43q0 4 6 19t14 31q13 25 16 38t3 31v10q0 46 -12 78t-44 71q-19 25 -19 53v5q2 30 27 52q22 18 47 18q18 0 38 -10q46 -24 81 -95q41 -86 41 -173l-1 -19q-5 -96 -58 -158q-28 -31 -60 -31q-14 0 -29 6z" />
    <glyph glyph-name="quotedblleft" unicode="&#x201c;" horiz-adv-x="444" 
d="M95 977q-75 39 -93 197q-2 24 -2 43q0 18 2 31q4 25 20 44q21 22 38 23.5t19 1.5q27 0 50 -18q14 -11 20 -31t9 -64q2 -41 9.5 -65.5t22.5 -45.5q17 -26 17 -50q0 -8 -2 -15q-6 -31 -39 -49q-20 -11 -28.5 -11h-10.5q-14 0 -32 9zM340 973q-22 7 -46.5 34.5t-42.5 64.5
q-42 90 -42 174q0 31 6 61q17 74 49 110t67 36q7 0 14 -1q24 -7 43 -30.5t19 -47.5q0 -5 -5.5 -19.5t-14.5 -31.5q-12 -25 -15.5 -39t-3.5 -39q0 -46 12 -78t45 -72q19 -24 19 -52q0 -5 -1 -10q-5 -33 -33 -53q-13 -8 -25.5 -9.5t-18.5 -1.5q-13 0 -26 4z" />
    <glyph glyph-name="quotedblright" unicode="&#x201d;" horiz-adv-x="444" 
d="M86 974q-21 11 -35.5 31.5t-14.5 42.5q0 4 6 19t14 31q13 25 16 38t3 31v10q0 46 -12 78t-44 71q-19 25 -19 53v5q3 31 27 52q22 18 47 18q18 0 38 -10q46 -24 81 -95q41 -86 41 -173l-1 -19q-5 -96 -58 -158q-28 -31 -60 -31q-14 0 -29 6zM330 1112q-22 11 -31 30
t-12 64q-4 51 -10 74.5t-21 44.5q-19 29 -19 54q0 16 7 31q14 27 34 35t34 8q15 0 31 -6q48 -17 76 -97q16 -44 21 -85t5 -62q0 -20 -4 -35q-13 -41 -36 -52.5t-39 -11.5q-17 0 -36 8z" />
    <glyph glyph-name="quotedblbase" unicode="&#x201e;" horiz-adv-x="444" 
d="M86 -137q-21 10 -35 31t-14 43q0 4 5.5 19t13.5 31q13 25 16 37.5t3 29.5v12q0 46 -12 78t-44 71q-19 25 -19 53v5q3 30 27 52q23 18 48 18q18 0 37 -10q46 -24 81 -95q41 -86 41 -173l-1 -19q-4 -96 -57 -158q-29 -31 -61 -31q-14 0 -29 6zM330 1q-22 11 -31 30t-12 64
q-4 51 -10 74.5t-21 44.5q-19 29 -19 54q0 16 7 31q14 27 34.5 35t35.5 8q14 0 29 -6q48 -17 76 -97q16 -45 21 -85.5t5 -61.5q0 -20 -4 -35q-13 -41 -36 -53t-39 -12q-17 0 -36 9z" />
    <glyph glyph-name="guilsinglleft" unicode="&#x2039;" horiz-adv-x="417" 
d="M290 113q-8 3 -21 14.5t-37.5 38t-67.5 75.5q-35 40 -68 77t-48 52q-48 46 -48 87v6q4 43 69 140q17 26 49 80.5t66 113.5q33 59 53.5 94.5t32 53.5t19.5 25.5t16 12.5q20 11 38 11q20 0 39 -13q35 -22 35 -67v-5q0 -12 -14 -41.5t-50 -91.5q-45 -80 -89.5 -156
t-74.5 -123l-18 -27l67 -75q29 -32 58 -64.5t44 -50.5q15 -17 28.5 -33.5t18.5 -24.5q10 -18 10 -38q0 -9 -2 -19q-6 -30 -31 -47q-15 -8 -27 -9t-15 -1q-18 0 -32 5z" />
    <glyph glyph-name="guilsinglright" unicode="&#x203a;" horiz-adv-x="417" 
d="M54 118q-26 18 -30 37.5t-4 28.5q0 20 11 38q5 8 18 24.5t28 33.5q16 18 45 50.5t57 64.5l67 75l-17 27q-30 47 -75 123t-90 156q-35 62 -49 91.5t-15 41.5v3q0 47 35 69q19 13 39 13q19 0 39 -11q8 -5 15.5 -12.5t19 -25.5t32 -53.5t54.5 -94.5q33 -59 65.5 -113.5
t48.5 -80.5q65 -97 67 -120t2 -26q0 -41 -48 -87q-15 -15 -48.5 -52.5t-69.5 -78.5q-53 -60 -79 -87.5t-40.5 -35t-32.5 -7.5h-11q-9 0 -16 1q-9 1 -18 8z" />
    <glyph glyph-name="lessequal" unicode="&#x2264;" horiz-adv-x="753" 
d="M699 168q47 -21 53 -66q1 -7 1 -13q0 -36 -35 -61q-6 -4 -13.5 -6.5t-24 -3t-49.5 -0.5h-122q-212 0 -394 -13h-20q-9 0 -18 0.5t-19 5.5q-30 17 -39 48q-3 12 -3 22q0 20 10 37q6 7 13.5 15t13.5 13q14 13 97.5 19.5t279.5 8.5q84 1 134 1.5t76.5 0t38.5 -2.5t20 -5z
M99 462q-39 9 -57 19.5t-31 30.5q-8 10 -10 19q-1 5 -1 11q0 7 1 14q1 27 16.5 45.5t56.5 44.5q136 85 264 184.5t180 158.5q35 41 73 41q17 0 35 -8q39 -21 39 -69q0 -25 -16.5 -50.5t-61.5 -66.5q-46 -44 -135.5 -115.5t-144.5 -110.5q-27 -18 -35 -26q-6 -5 -6 -8
q0 -2 2 -3q4 -2 24.5 -10t48.5 -18q38 -15 109 -47t133 -62t74 -39q4 -4 8.5 -11t8.5 -15q6 -17 6 -32q0 -22 -17.5 -47t-62.5 -27q-11 0 -24 3.5t-37.5 14.5t-67.5 32q-91 44 -200 87t-172 60z" />
    <glyph glyph-name="greaterequal" unicode="&#x2265;" horiz-adv-x="753" 
d="M701 146q36 -28 36 -64v-6q-4 -72 -93 -72q-24 0 -53 5q-15 2 -95.5 4t-189.5 3h-25q-95 1 -148 2.5t-77.5 5t-33 11.5t-13.5 22q-1 1 -2 3q-7 17 -7 33t10 38.5t44 36.5q8 3 20 5t38.5 2.5t76.5 0t134 -1.5q196 -2 279.5 -8.5t98.5 -19.5zM753 556v-9q0 -9 -1.5 -17
t-9.5 -18q-12 -20 -30.5 -30.5t-57.5 -19.5q-62 -16 -171.5 -59.5t-201.5 -87.5q-43 -21 -67.5 -32t-37.5 -14.5t-24 -3.5q-27 0 -43 12q-15 11 -26 29t-11 34q0 14 7.5 31t17.5 26q11 9 73.5 39t133 62t108.5 47q28 10 48.5 18t24.5 10q2 1 2 3q0 3 -7 9.5t-33 24.5
q-56 39 -145 110.5t-136 115.5q-44 41 -61 66.5t-17 50.5q0 48 39 69q18 8 35 8q38 0 73 -41q52 -59 180 -158.5t264 -184.5q42 -26 57 -44.5t17 -45.5z" />
  </font>
</defs>
</svg>
