<svg width="39" height="39" viewBox="0 0 39 39" fill="none" xmlns="http://www.w3.org/2000/svg">
<path d="M36.9504 6.48643C36.967 5.49583 36.6082 4.58242 35.9404 3.91456C35.578 3.55224 34.9905 3.55224 34.6282 3.9146C34.2659 4.27697 34.2658 4.86443 34.6282 5.22675C34.9373 5.53582 35.1031 5.97213 35.095 6.4554C35.0873 6.91644 34.9128 7.36162 34.6282 7.64623C34.0379 8.23657 28.1533 13.4028 23.5575 17.4226L22.4311 16.2963C25.7861 12.4575 29.9497 7.71081 31.5782 5.90848L31.9487 6.27901C32.3111 6.64138 32.8986 6.64143 33.2609 6.27911C33.6233 5.91679 33.6233 5.32932 33.261 4.96696L32.2088 3.91465C32.0348 3.74063 31.7988 3.64284 31.5527 3.64284H31.5527C31.3066 3.64284 31.0706 3.74059 30.8966 3.91456C30.332 4.47915 26.8782 8.40182 23.7619 11.958C22.9238 10.6895 21.8044 9.59831 20.473 8.76066C18.5269 7.53633 16.258 6.91556 13.7293 6.91556C13.173 6.91556 12.6227 6.95063 12.0937 7.01989C11.5856 7.08642 11.2276 7.55219 11.2941 8.06032C11.3606 8.56841 11.8263 8.92637 12.3345 8.85989C12.784 8.80106 13.2533 8.77123 13.7293 8.77123C17.5795 8.77123 20.8092 10.4974 22.4841 13.4172C20.9212 15.2031 19.5785 16.7412 18.9309 17.4834C17.7749 17.6409 16.9124 18.114 16.3042 18.9252C15.7387 19.6794 15.4908 20.5801 15.2284 21.5337C14.912 22.6836 14.5849 23.8726 13.6519 24.8056C13.3865 25.0709 13.3071 25.47 13.4507 25.8167C13.5944 26.1635 13.9327 26.3895 14.308 26.3895C16.805 26.3895 18.7841 25.8573 20.1904 24.8076C21.4577 23.8616 22.2131 22.5186 22.3917 20.9058C24.7824 18.8179 35.0829 9.81579 35.9403 8.95838C36.5664 8.33232 36.9346 7.4313 36.9504 6.48643ZM22.1573 18.6468C21.8784 18.8904 21.6082 19.1265 21.3483 19.3534L20.5011 18.5063C20.7278 18.2465 20.9639 17.9759 21.2075 17.697L22.1573 18.6468ZM19.0804 23.3205C18.3506 23.8654 17.3793 24.2284 16.1805 24.4062C16.5884 23.586 16.8173 22.7543 17.0176 22.026C17.4477 20.4632 17.7096 19.6788 18.7693 19.3988L20.4825 21.112C20.2939 22.024 19.8245 22.7651 19.0804 23.3205Z" fill="black"/>
<path d="M9.19681 9.75305C9.33195 9.75305 9.46922 9.72336 9.59907 9.66078C9.68235 9.62061 9.76789 9.58113 9.85326 9.5435C10.322 9.33655 10.5343 8.78875 10.3274 8.31996C10.1204 7.85122 9.57268 7.63893 9.10384 7.84584C8.9996 7.89186 8.89508 7.9401 8.79315 7.98923C8.3316 8.21178 8.13782 8.76639 8.36032 9.22794C8.52028 9.55965 8.85165 9.75305 9.19681 9.75305Z" fill="black"/>
<path d="M15.9018 27.4206C15.3898 27.4156 14.9694 27.8256 14.9636 28.3379C14.9235 31.9049 14.385 33.4962 11.3003 33.4962C9.57096 33.4962 7.75611 32.2311 6.32111 30.0255C4.73882 27.5933 3.8674 24.4355 3.8674 21.1338C3.8674 16.8475 5.16173 13.2811 7.51199 11.0916C7.88693 10.7423 7.90771 10.1552 7.55843 9.78025C7.20914 9.40531 6.62201 9.38453 6.24707 9.73381C4.86269 11.0236 3.79154 12.6993 3.06333 14.7146C2.3655 16.6457 2.01172 18.8055 2.01172 21.1338C2.01172 24.7905 2.9898 28.3077 4.76568 31.0374C6.5495 33.7793 8.93131 35.3519 11.3003 35.3519C13.5661 35.3519 15.1453 34.5546 15.994 32.9821C16.7226 31.6319 16.8019 29.8877 16.8191 28.3588C16.8248 27.8464 16.4142 27.4263 15.9018 27.4206Z" fill="black"/>
<path d="M20.4675 13.6795C20.4675 11.9751 19.0808 10.5884 17.3764 10.5884C15.6719 10.5884 14.2852 11.9751 14.2852 13.6795C14.2852 15.384 15.6719 16.7708 17.3764 16.7708C19.0808 16.7707 20.4675 15.384 20.4675 13.6795ZM16.1408 13.6795C16.1408 12.9983 16.6951 12.4441 17.3764 12.4441C18.0577 12.4441 18.6119 12.9983 18.6119 13.6795C18.6119 14.3608 18.0577 14.9151 17.3764 14.9151C16.6951 14.915 16.1408 14.3608 16.1408 13.6795Z" fill="black"/>
<path d="M10.0096 17.8818C11.7141 17.8818 13.1008 16.4951 13.1008 14.7906C13.1008 13.0862 11.7141 11.6995 10.0096 11.6995C8.30516 11.6995 6.91846 13.0862 6.91846 14.7906C6.91846 16.4951 8.30516 17.8818 10.0096 17.8818ZM10.0096 13.5551C10.6909 13.5551 11.2452 14.1094 11.2452 14.7906C11.2452 15.4719 10.6909 16.0261 10.0096 16.0261C9.32838 16.0261 8.77413 15.4719 8.77413 14.7906C8.77413 14.1094 9.32842 13.5551 10.0096 13.5551Z" fill="black"/>
<path d="M10.7327 21.893C10.7327 20.1885 9.34596 18.8018 7.64148 18.8018C5.93699 18.8018 4.55029 20.1885 4.55029 21.893C4.55029 23.5974 5.93699 24.9841 7.64148 24.9841C9.34596 24.9841 10.7327 23.5974 10.7327 21.893ZM7.64148 23.1285C6.96021 23.1285 6.40597 22.5743 6.40597 21.893C6.40597 21.2117 6.96021 20.6574 7.64148 20.6574C8.32274 20.6574 8.87699 21.2117 8.87699 21.893C8.87699 22.5742 8.32274 23.1285 7.64148 23.1285Z" fill="black"/>
<path d="M10.8895 32.2169C12.594 32.2169 13.9807 30.8302 13.9807 29.1258C13.9807 27.4214 12.594 26.0347 10.8895 26.0347C9.18504 26.0347 7.79834 27.4214 7.79834 29.1258C7.79834 30.8302 9.18504 32.2169 10.8895 32.2169ZM10.8895 27.8903C11.5708 27.8903 12.125 28.4445 12.125 29.1258C12.125 29.8071 11.5708 30.3613 10.8895 30.3613C10.2083 30.3613 9.65402 29.8071 9.65402 29.1258C9.65402 28.4445 10.2083 27.8903 10.8895 27.8903Z" fill="black"/>
</svg>
